FiraMath-Light.sfdir
StartChar: uni0023
Encoding: 35 35 3
Width: 503
Flags: W
HStem: 0 21G<63 115 63 63 298 350 298 298> 180 46<15 87 15 93 145 322 380 451> 452 47<52 123 52 129 52 175 181 358 416 488>
VStem: 15 473<180 452 226 452>
LayerCount: 2
Fore
SplineSet
488 452 m 1
 410 452 l 1
 380 226 l 1
 451 226 l 1
 451 180 l 1
 374 180 l 1
 350 0 l 1
 298 0 l 1
 322 180 l 1
 139 180 l 1
 115 0 l 1
 63 0 l 1
 87 180 l 1
 15 180 l 1
 15 226 l 1
 93 226 l 1
 123 452 l 1
 52 452 l 1
 52 499 l 1
 129 499 l 1
 151 665 l 1
 203 665 l 1
 181 499 l 1
 364 499 l 1
 386 665 l 1
 438 665 l 1
 416 499 l 1
 488 499 l 1
 488 452 l 1
145 226 m 1
 328 226 l 1
 358 452 l 1
 175 452 l 1
 145 226 l 1
EndSplineSet
EndChar
StartChar: uni002B
Encoding: 43 43 11
Width: 493
Flags: W
HStem: 306 50<69 219 69 219 274 424>
VStem: 219 55<154 306 154 306 356 508>
LayerCount: 2
Fore
SplineSet
274 508 m 1
 274 356 l 1
 424 356 l 1
 424 306 l 1
 274 306 l 1
 274 154 l 1
 219 154 l 1
 219 306 l 1
 69 306 l 1
 69 356 l 1
 219 356 l 1
 219 508 l 1
 274 508 l 1
EndSplineSet
EndChar
StartChar: uni0031
Encoding: 49 49 17
Width: 413
Flags: W
HStem: 0 21G<234 292 234 234>
VStem: 234 58<0 601 601 601>
LayerCount: 2
Fore
SplineSet
292 665 m 1
 292 0 l 1
 234 0 l 1
 234 601 l 1
 70 499 l 1
 43 542 l 1
 242 665 l 1
 292 665 l 1
EndSplineSet
EndChar
StartChar: uni0032
Encoding: 50 50 18
Width: 479
Flags: W
HStem: 0 51<111 418> 627 49<190 260>
VStem: 348 60<439.5 537.5>
LayerCount: 2
Fore
SplineSet
225 676 m 0
 339 676 408 601 408 501 c 0
 408 369 334 286 111 51 c 1
 426 51 l 1
 418 0 l 1
 43 0 l 1
 43 49 l 1
 290 312 348 381 348 498 c 0
 348 577 298 627 222 627 c 0
 158 627 114 600 73 551 c 1
 33 581 l 1
 86 645 145 676 225 676 c 0
EndSplineSet
EndChar
StartChar: uni0033
Encoding: 51 51 19
Width: 486
Flags: W
HStem: -11 49<180 258 180 275.5> 327 47<177 209 209 213 169 209> 627 49<190 256.5>
VStem: 346 58<465 544> 363 60<143 237.5>
LayerCount: 2
Fore
SplineSet
221 676 m 0xf0
 337 676 404 603 404 510 c 0xf0
 404 420 347 367 273 354 c 1
 356 350 423 293 423 188 c 0
 423 72 340 -11 211 -11 c 0
 133 -11 70 18 20 75 c 1
 57 108 l 1
 104 57 151 38 209 38 c 0
 307 38 363 99 363 187 c 0xe8
 363 288 303 327 213 327 c 2
 169 327 l 1
 177 374 l 1
 209 374 l 2
 279 374 346 416 346 507 c 0
 346 581 295 627 218 627 c 0
 162 627 118 609 70 565 c 1
 39 601 l 1
 91 651 148 676 221 676 c 0xf0
EndSplineSet
EndChar
StartChar: uni0034
Encoding: 52 52 20
Width: 518
Flags: W
HStem: 0 21G<336 393 336 336> 175 48<107 336 107 336 393 483>
VStem: 336 57<0 175 0 175 0 223>
LayerCount: 2
Fore
SplineSet
483 223 m 1
 483 175 l 1
 393 175 l 1
 393 0 l 1
 336 0 l 1
 336 175 l 1
 45 175 l 1
 45 218 l 1
 248 676 l 1
 297 656 l 1
 107 223 l 1
 336 223 l 1
 343 418 l 1
 393 418 l 1
 393 223 l 1
 483 223 l 1
EndSplineSet
EndChar
StartChar: uni003C
Encoding: 60 60 28
Width: 497
Flags: W
HStem: 509 20G<412 412>
VStem: 64 51<333 333 333 360 333 360>
LayerCount: 2
Fore
SplineSet
412 529 m 1
 433 480 l 1
 115 333 l 1
 433 183 l 1
 412 135 l 1
 64 306 l 1
 64 360 l 1
 412 529 l 1
EndSplineSet
EndChar
StartChar: uni0040
Encoding: 64 64 32
Width: 1020
Flags: W
HStem: -205 49<408.5 563 408.5 569> 14 46<455 521> 439 45<478.5 544.5> 646 50<410 639.5>
VStem: 85 59<119.5 354.5 119.5 367.5> 316 58<175 298.5 175 317.5> 616 54<166 190 190 419 419 419> 876 59<213 403>
LayerCount: 2
Fore
SplineSet
526 696 m 0
 796 696 935 514 935 308 c 0
 935 109 858 12 754 12 c 0
 683 12 644 63 632 122 c 1
 605 59 558 14 484 14 c 0
 388 14 316 93 316 232 c 0
 316 403 408 484 525 484 c 0
 577 484 625 471 670 448 c 1
 670 190 l 2
 670 97 702 59 753 59 c 0
 821 59 876 120 876 306 c 0
 876 500 753 646 526 646 c 0
 294 646 144 470 144 239 c 0
 144 0 292 -156 525 -156 c 0
 601 -156 660 -142 714 -122 c 1
 730 -169 l 1
 670 -190 614 -205 524 -205 c 0
 268 -205 85 -36 85 239 c 0
 85 496 262 696 526 696 c 0
490 60 m 0
 560 60 600 118 616 166 c 1
 616 419 l 1
 589 432 562 439 527 439 c 0
 430 439 374 365 374 232 c 0
 374 118 420 60 490 60 c 0
EndSplineSet
EndChar
StartChar: uni0052
Encoding: 82 82 50
Width: 590
Flags: W
HStem: 0 21G<111 171 111 111 485 556 485 485> 307 49<171 285 285 308 171 285> 636 49<171 275 171 171>
VStem: 111 60<0 307 356 636> 457 64<449 544.5>
LayerCount: 2
Fore
SplineSet
485 0 m 1
 308 307 l 1
 171 307 l 1
 171 0 l 1
 111 0 l 1
 111 685 l 1
 277 685 l 2
 442 685 521 620 521 499 c 0
 521 397 465 343 368 318 c 1
 556 0 l 1
 485 0 l 1
171 356 m 1
 285 356 l 2
 394 356 457 399 457 499 c 0
 457 590 406 636 275 636 c 2
 171 636 l 1
 171 356 l 1
EndSplineSet
EndChar
StartChar: uni0055
Encoding: 85 85 53
Width: 652
Flags: W
HStem: -11 52<268.5 383.5 268.5 401> 665 20G<101 161 161 161 490 551 551 551>
VStem: 101 60<214 219 219 685> 490 61<219 685>
LayerCount: 2
Fore
SplineSet
551 685 m 1
 551 214 l 2
 551 82 476 -11 326 -11 c 0
 174 -11 101 82 101 214 c 2
 101 685 l 1
 161 685 l 1
 161 219 l 2
 161 108 211 41 326 41 c 0
 441 41 490 109 490 219 c 2
 490 685 l 1
 551 685 l 1
EndSplineSet
EndChar
StartChar: uni005D
Encoding: 93 93 61
Width: 317
Flags: W
HStem: -112 48<66 178 66 233 66 178> 758 49<66 178 66 233>
VStem: 178 55<-64 758 758 758>
LayerCount: 2
Fore
SplineSet
233 807 m 1
 233 -112 l 1
 66 -112 l 1
 66 -64 l 1
 178 -64 l 1
 178 758 l 1
 66 758 l 1
 66 807 l 1
 233 807 l 1
EndSplineSet
EndChar
StartChar: uni006D
Encoding: 109 109 77
Width: 849
Flags: W
HStem: 0 21G<105 163 105 105 398 456 398 398 692 750 692 692> 487 47<287 337 579.5 630> 503 20G<105 155 155 155>
VStem: 105 58<0 379 0 523> 398 58<0 366 366 379 0 408.5> 692 58<0 366 366 374 0 408.5>
LayerCount: 2
Fore
SplineSet
614 534 m 0xdc
 699 534 750 473 750 374 c 2
 750 0 l 1
 692 0 l 1
 692 366 l 2
 692 451 657 487 603 487 c 0
 540 487 496 443 456 379 c 1
 456 0 l 1
 398 0 l 1
 398 366 l 2
 398 451 364 487 310 487 c 0xdc
 247 487 202 443 163 379 c 1
 163 0 l 1
 105 0 l 1
 105 523 l 1
 155 523 l 1xbc
 160 436 l 1
 200 495 253 534 321 534 c 0
 387 534 434 495 450 430 c 1
 490 492 545 534 614 534 c 0xdc
EndSplineSet
EndChar
StartChar: uni0070
Encoding: 112 112 80
Width: 574
Flags: W
HStem: -205 21G<105 105> -197 21G<163 163> -11 49<279 349 271.5 377> 486 48<286 355.5> 503 20G<105 155 155 155>
VStem: 105 58<-197 61 -197 117 117 396> 449 61<189 338.5>
LayerCount: 2
Fore
SplineSet
320 534 m 0x76
 449 534 510 433 510 264 c 0
 510 99 442 -11 312 -11 c 0
 246 -11 196 19 163 61 c 1
 163 -197 l 1x76
 105 -205 l 1
 105 523 l 1
 155 523 l 1xae
 159 446 l 1
 197 500 252 534 320 534 c 0x76
301 38 m 0
 397 38 449 114 449 264 c 0
 449 413 401 486 310 486 c 0
 243 486 199 446 163 396 c 1
 163 117 l 1
 196 69 242 38 301 38 c 0
EndSplineSet
EndChar
StartChar: uni0071
Encoding: 113 113 81
Width: 579
Flags: W
HStem: -205 21G<474 474> -197 21G<416 416> -11 48<225.5 297> 486 48<233.5 307 205.5 311.5> 503 20G<424 474 474 474>
VStem: 64 62<187 260 187 339.5> 416 58<-197 76 76 76 133 408 408 408>
LayerCount: 2
Fore
SplineSet
424 523 m 1x6e
 474 523 l 1
 474 -205 l 1xae
 416 -197 l 1
 416 76 l 1
 385 26 334 -11 260 -11 c 0
 138 -11 64 93 64 259 c 0
 64 420 141 534 270 534 c 0
 344 534 389 498 420 460 c 1x76
 424 523 l 1x6e
270 37 m 0
 339 37 381 72 416 133 c 1
 416 408 l 1
 385 452 343 486 280 486 c 0x76
 187 486 125 407 126 260 c 0
 126 114 181 37 270 37 c 0
EndSplineSet
EndChar
StartChar: uni0077
Encoding: 119 119 87
Width: 698
Flags: W
HStem: 0 44<505 505 505 545 467 505> 469 54<351 351>
VStem: 25 648<523 523>
LayerCount: 2
Fore
SplineSet
673 523 m 1
 545 0 l 1
 467 0 l 1
 351 469 l 1
 233 0 l 1
 156 0 l 1
 25 523 l 1
 85 523 l 1
 197 45 l 1
 319 523 l 1
 385 523 l 1
 505 44 l 1
 616 523 l 1
 673 523 l 1
EndSplineSet
EndChar
StartChar: uni007B
Encoding: 123 123 91
Width: 326
Flags: W
HStem: -129 45<230.5 262 230.5 262> 324 50<44 69> 783 45<230.5 262>
VStem: 120 55<-4 247 448 451 451 703 703 705>
LayerCount: 2
Fore
SplineSet
262 828 m 1
 262 783 l 1
 199 783 175 759 175 705 c 2
 175 451 l 2
 175 382 149 362 99 349 c 1
 149 336 175 317 175 247 c 2
 175 -6 l 2
 175 -60 199 -84 262 -84 c 1
 262 -129 l 1
 164 -129 120 -92 120 -4 c 2
 120 251 l 2
 120 305 94 324 44 324 c 1
 44 374 l 1
 94 374 120 394 120 448 c 2
 120 703 l 2
 120 791 164 828 262 828 c 1
EndSplineSet
EndChar
StartChar: uni00A7
Encoding: 167 167 102
Width: 532
Flags: W
HStem: -68 48<225 288 225 301.5> 627 48<242 302.5>
VStem: 84 57<295.5 340.5 295.5 341.5> 109 58<518 567 518 581.5> 367 59<38.5 88.5> 392 57<264 307.5>
LayerCount: 2
Fore
SplineSet
372 167 m 1xd8
 409 143 426 113 426 68 c 0
 426 -16 352 -68 251 -68 c 0
 183 -68 132 -49 88 -21 c 1
 113 20 l 1
 154 -7 197 -20 253 -20 c 0
 323 -20 367 14 367 63 c 0
 367 114 346 134 243 170 c 0
 131 207 84 238 84 317 c 0xe8
 84 366 113 409 163 441 c 1
 125 466 109 495 109 540 c 0
 109 623 181 675 276 675 c 0
 346 675 392 654 434 626 c 1
 410 587 l 1
 367 614 329 627 276 627 c 0
 208 627 167 591 167 543 c 0
 167 493 190 471 297 435 c 0
 404 399 449 362 449 289 c 0xd4
 449 239 422 200 372 167 c 1xd8
141 323 m 0xe4
 141 268 165 248 260 215 c 0
 289 205 314 196 335 186 c 1
 375 216 392 246 392 282 c 0
 392 333 373 358 274 392 c 0
 245 402 220 412 199 422 c 1
 160 392 141 358 141 323 c 0xe4
EndSplineSet
EndChar
StartChar: uni00AF
Encoding: 175 175 110
Width: 301
Flags: W
HStem: 676 47<30 271 30 271>
VStem: 30 241<676 723 676 723>
LayerCount: 2
Fore
SplineSet
271 676 m 1
 30 676 l 1
 30 723 l 1
 271 723 l 1
 271 676 l 1
EndSplineSet
EndChar
StartChar: uni00B6
Encoding: 182 182 117
Width: 708
Flags: W
HStem: -206 21G<321 321 503 503> -197 21G<375 375 557 557> 637 48<375 503 375 375>
VStem: 321 54<-197 294 294 294> 503 54<-197 637 637 637>
LayerCount: 2
Fore
SplineSet
333 685 m 2x78
 557 685 l 1
 557 -197 l 1x78
 503 -206 l 1xb8
 503 637 l 1
 375 637 l 1
 375 -197 l 1x78
 321 -206 l 1xb8
 321 294 l 1
 161 300 101 385 101 490 c 0
 101 615 187 685 333 685 c 2x78
EndSplineSet
EndChar
StartChar: uni00C1
Encoding: 193 193 128
Width: 565
Flags: W
HStem: 0 21G<16 77 16 16 485 548 485 485> 187 51<154 409 154 425 137 409> 636 49<282 282>
VStem: 16 532<0 0>
LayerCount: 2
Fore
SplineSet
389 836 m 1
 191 758 l 1
 175 792 l 1
 363 888 l 1
 389 836 l 1
485 0 m 1
 425 187 l 1
 137 187 l 1
 77 0 l 1
 16 0 l 1
 245 685 l 1
 320 685 l 1
 548 0 l 1
 485 0 l 1
154 238 m 1
 409 238 l 1
 282 636 l 1
 154 238 l 1
EndSplineSet
EndChar
StartChar: uni00CF
Encoding: 207 207 142
Width: 282
Flags: W
HStem: 0 21G<111 171 111 111> 665 20G<111 171 171 171> 789 79<33.5 56.5 222.5 245.5>
VStem: 5 80<817 839> 111 60<0 685 0 685> 194 80<817 839>
LayerCount: 2
Fore
SplineSet
45 868 m 0
 68 868 85 850 85 828 c 0
 85 806 68 789 45 789 c 0
 22 789 5 806 5 828 c 0
 5 850 22 868 45 868 c 0
234 868 m 0
 257 868 274 850 274 828 c 0
 274 806 257 789 234 789 c 0
 211 789 194 806 194 828 c 0
 194 850 211 868 234 868 c 0
171 685 m 1xe8
 171 0 l 1
 111 0 l 1
 111 685 l 1
 171 685 l 1xe8
EndSplineSet
EndChar
StartChar: uni00D4
Encoding: 212 212 147
Width: 691
Flags: W
HStem: -11 51<281.5 412 281.5 430> 645 51<280.5 411>
VStem: 66 63<238.5 445 238.5 454> 562 63<239 446>
LayerCount: 2
Fore
SplineSet
223 762 m 1
 197 792 l 1
 327 894 l 1
 363 894 l 1
 492 792 l 1
 466 762 l 1
 345 842 l 1
 223 762 l 1
345 696 m 0
 512 696 625 573 625 342 c 0
 625 117 515 -11 345 -11 c 0
 180 -11 66 113 66 341 c 0
 66 567 181 696 345 696 c 0
345 645 m 0
 216 645 129 549 129 341 c 0
 129 136 218 40 345 40 c 0
 479 40 562 136 562 342 c 0
 562 550 477 645 345 645 c 0
EndSplineSet
EndChar
StartChar: uni00DB
Encoding: 219 219 154
Width: 652
Flags: W
HStem: -11 52<268.5 383.5 268.5 401> 665 20G<101 161 161 161 490 551 551 551>
VStem: 101 60<214 219 219 685> 490 61<219 685>
LayerCount: 2
Fore
SplineSet
204 762 m 1
 178 792 l 1
 308 894 l 1
 344 894 l 1
 473 792 l 1
 447 762 l 1
 326 842 l 1
 204 762 l 1
551 685 m 1
 551 214 l 2
 551 82 476 -11 326 -11 c 0
 174 -11 101 82 101 214 c 2
 101 685 l 1
 161 685 l 1
 161 219 l 2
 161 108 211 41 326 41 c 0
 441 41 490 109 490 219 c 2
 490 685 l 1
 551 685 l 1
EndSplineSet
EndChar
StartChar: uni00DF
Encoding: 223 223 158
Width: 581
Flags: W
HStem: -11 49<348 397 347.5 416.5> 0 21G<105 163 105 105> 696 47<253.5 323.5>
VStem: 105 58<0 538 0 540 0 605.5> 284 56<381 457 381 464.5> 400 57<558.5 634.5> 473 59<117.5 231.5>
LayerCount: 2
Fore
SplineSet
292 743 m 0x7e
 391 743 457 686 457 609 c 0xbe
 457 501 340 490 340 424 c 0
 340 338 532 331 532 155 c 0
 532 55 463 -11 370 -11 c 0
 326 -11 298 -1 273 12 c 1
 292 53 l 1
 309 45 330 38 365 38 c 0
 429 38 473 79 473 156 c 0xba
 473 307 284 305 284 421 c 0
 284 508 400 511 400 606 c 0
 400 663 355 696 292 696 c 0
 215 696 163 647 163 538 c 2
 163 0 l 1
 105 0 l 1
 105 540 l 2
 105 671 179 743 292 743 c 0x7e
EndSplineSet
EndChar
StartChar: uni00E3
Encoding: 227 227 162
Width: 536
Flags: W
HStem: -11 47<193.5 253> 272 42<273 282 282 373> 485 49<232.5 295.5> 666 47<297.5 327.5 297.5 335> 670 20G<108 108> 712 46<188.5 217> 718 20G<409 409>
VStem: 56 62<112 189.5 112 200> 373 58<128 272 272 272 314 365 365 368>
LayerCount: 2
Fore
SplineSet
200 712 m 0xed80
 177 712 162 699 144 672 c 1xeb80
 108 690 l 1
 130 730 160 758 200 758 c 0xed80
 247 758 278 713 317 713 c 0
 338 713 353 725 373 756 c 1
 409 738 l 1
 385 688 353 666 317 666 c 0xf180
 266 666 234 712 200 712 c 0xed80
431 116 m 2xeb80
 431 58 447 41 475 30 c 1
 462 -11 l 1
 416 -2 389 21 381 77 c 1
 344 17 288 -11 218 -11 c 0
 117 -11 56 52 56 145 c 0
 56 255 139 314 273 314 c 2
 373 314 l 1
 373 365 l 2
 373 448 339 485 252 485 c 0
 210 485 162 474 110 455 c 1
 95 499 l 1
 153 522 205 534 260 534 c 0
 379 534 431 475 431 368 c 2
 431 116 l 2xeb80
228 36 m 0
 294 36 340 69 373 128 c 1
 373 272 l 1
 282 272 l 2
 177 272 118 231 118 148 c 0
 118 76 159 36 228 36 c 0
EndSplineSet
EndChar
StartChar: uni00E4
Encoding: 228 228 163
Width: 536
Flags: W
HStem: -11 47<193.5 253> 272 42<273 282 282 373> 485 49<232.5 295.5> 663 79<151.5 174.5 340.5 363.5>
VStem: 56 62<112 189.5 112 200> 123 80<691 713> 312 80<691 713> 373 58<128 272 272 272 314 365 365 368>
LayerCount: 2
Fore
SplineSet
163 663 m 0xf6
 140 663 123 680 123 702 c 0
 123 724 140 742 163 742 c 0
 186 742 203 724 203 702 c 0
 203 680 186 663 163 663 c 0xf6
352 663 m 0
 329 663 312 680 312 702 c 0
 312 724 329 742 352 742 c 0
 375 742 392 724 392 702 c 0
 392 680 375 663 352 663 c 0
431 116 m 2xf9
 431 58 447 41 475 30 c 1
 462 -11 l 1
 416 -2 389 21 381 77 c 1
 344 17 288 -11 218 -11 c 0
 117 -11 56 52 56 145 c 0
 56 255 139 314 273 314 c 2
 373 314 l 1
 373 365 l 2
 373 448 339 485 252 485 c 0
 210 485 162 474 110 455 c 1
 95 499 l 1
 153 522 205 534 260 534 c 0
 379 534 431 475 431 368 c 2
 431 116 l 2xf9
228 36 m 0
 294 36 340 69 373 128 c 1
 373 272 l 1
 282 272 l 2
 177 272 118 231 118 148 c 0
 118 76 159 36 228 36 c 0
EndSplineSet
EndChar
StartChar: uni00F1
Encoding: 241 241 176
Width: 581
Flags: W
HStem: 0 21G<105 163 105 105 423 481 423 423> 487 47<298.5 357> 503 20G<105 155 155 155> 666 47<335.5 365.5 335.5 373> 670 20G<146 146> 712 46<226.5 255> 718 20G<447 447>
VStem: 105 58<0 379 0 523> 423 58<0 366 366 374 0 409>
LayerCount: 2
Fore
SplineSet
238 712 m 0xcd80
 215 712 200 699 182 672 c 1xcb80
 146 690 l 1
 168 730 198 758 238 758 c 0xcd80
 285 758 316 713 355 713 c 0
 376 713 391 725 411 756 c 1
 447 738 l 1
 423 688 391 666 355 666 c 0xd180
 304 666 272 712 238 712 c 0xcd80
336 534 m 0xcb80
 431 534 481 475 481 374 c 2
 481 0 l 1
 423 0 l 1
 423 366 l 2
 423 452 389 487 325 487 c 0xcb80
 254 487 205 443 163 379 c 1
 163 0 l 1
 105 0 l 1
 105 523 l 1
 155 523 l 1xab80
 160 435 l 1
 202 494 261 534 336 534 c 0xcb80
EndSplineSet
EndChar
StartChar: uni00F4
Encoding: 244 244 179
Width: 571
Flags: W
HStem: -11 49<235 335 235 354> 485 49<236.5 336.5>
VStem: 64 62<187.5 336 187.5 345> 446 61<188 336.5>
LayerCount: 2
Fore
SplineSet
164 643 m 1
 138 674 l 1
 267 779 l 1
 303 779 l 1
 433 674 l 1
 407 643 l 1
 285 728 l 1
 164 643 l 1
286 534 m 0
 425 534 507 434 507 263 c 0
 507 94 423 -11 285 -11 c 0
 146 -11 64 93 64 261 c 0
 64 429 149 534 286 534 c 0
286 485 m 0
 187 485 126 411 126 261 c 0
 126 114 185 38 285 38 c 0
 385 38 446 113 446 263 c 0
 446 410 387 485 286 485 c 0
EndSplineSet
EndChar
StartChar: uni00F6
Encoding: 246 246 181
Width: 571
Flags: W
HStem: -11 49<235 335 235 354> 485 49<236.5 336.5> 663 79<179.5 202.5 368.5 391.5>
VStem: 64 62<187.5 336 187.5 345> 151 80<691 713> 340 80<691 713> 446 61<188 336.5>
LayerCount: 2
Fore
SplineSet
191 742 m 0
 214 742 231 724 231 702 c 0
 231 680 214 663 191 663 c 0
 168 663 151 680 151 702 c 0
 151 724 168 742 191 742 c 0
380 742 m 0
 403 742 420 724 420 702 c 0
 420 680 403 663 380 663 c 0
 357 663 340 680 340 702 c 0
 340 724 357 742 380 742 c 0
286 534 m 0xf2
 425 534 507 434 507 263 c 0
 507 94 423 -11 285 -11 c 0
 146 -11 64 93 64 261 c 0
 64 429 149 534 286 534 c 0xf2
286 485 m 0
 187 485 126 411 126 261 c 0
 126 114 185 38 285 38 c 0
 385 38 446 113 446 263 c 0
 446 410 387 485 286 485 c 0
EndSplineSet
EndChar
StartChar: uni00FA
Encoding: 250 250 185
Width: 576
Flags: W
HStem: -11 48<226.5 287.5> 0 21G<422 471 422 422> 503 20G<99 157 157 157 413 471 471 471>
VStem: 99 58<149 155 155 523> 413 58<144 523 0 523>
LayerCount: 2
Fore
SplineSet
361 782 m 1xb8
 387 730 l 1
 192 645 l 1
 173 679 l 1
 361 782 l 1xb8
471 523 m 1
 471 0 l 1
 422 0 l 1x78
 418 93 l 1
 382 31 328 -11 247 -11 c 0
 154 -11 99 46 99 149 c 2
 99 523 l 1
 157 523 l 1
 157 155 l 2
 157 72 192 37 261 37 c 0
 329 37 377 82 413 144 c 1
 413 523 l 1
 471 523 l 1
EndSplineSet
EndChar
StartChar: uni00FC
Encoding: 252 252 187
Width: 576
Flags: W
HStem: -11 48<226.5 287.5> 0 21G<422 471 422 422> 503 20G<99 157 157 157 413 471 471 471> 663 79<179.5 202.5 368.5 391.5>
VStem: 99 58<149 155 155 523> 151 80<691 713> 340 80<691 713> 413 58<144 523 0 523>
LayerCount: 2
Fore
SplineSet
191 742 m 0xb6
 214 742 231 724 231 702 c 0
 231 680 214 663 191 663 c 0
 168 663 151 680 151 702 c 0
 151 724 168 742 191 742 c 0xb6
380 742 m 0
 403 742 420 724 420 702 c 0
 420 680 403 663 380 663 c 0
 357 663 340 680 340 702 c 0
 340 724 357 742 380 742 c 0
471 523 m 1xb9
 471 0 l 1
 422 0 l 1x79
 418 93 l 1
 382 31 328 -11 247 -11 c 0
 154 -11 99 46 99 149 c 2
 99 523 l 1
 157 523 l 1
 157 155 l 2
 157 72 192 37 261 37 c 0
 329 37 377 82 413 144 c 1
 413 523 l 1
 471 523 l 1xb9
EndSplineSet
EndChar
StartChar: uni0101
Encoding: 257 257 192
Width: 536
Flags: W
HStem: -11 47<193.5 253> 272 42<273 282 282 373> 485 49<232.5 295.5> 676 47<138 379 138 379>
VStem: 56 62<112 189.5 112 200> 138 241<676 723 676 723> 373 58<128 272 272 272 314 365 365 368>
LayerCount: 2
Fore
SplineSet
379 723 m 1xfc
 379 676 l 1
 138 676 l 1
 138 723 l 1
 379 723 l 1xfc
431 116 m 2xfa
 431 58 447 41 475 30 c 1
 462 -11 l 1
 416 -2 389 21 381 77 c 1
 344 17 288 -11 218 -11 c 0
 117 -11 56 52 56 145 c 0
 56 255 139 314 273 314 c 2
 373 314 l 1
 373 365 l 2
 373 448 339 485 252 485 c 0
 210 485 162 474 110 455 c 1
 95 499 l 1
 153 522 205 534 260 534 c 0
 379 534 431 475 431 368 c 2
 431 116 l 2xfa
228 36 m 0
 294 36 340 69 373 128 c 1
 373 272 l 1
 282 272 l 2
 177 272 118 231 118 148 c 0
 118 76 159 36 228 36 c 0
EndSplineSet
EndChar
StartChar: uni0103
Encoding: 259 259 194
Width: 536
Flags: W
HStem: -11 47<193.5 253> 272 42<273 282 282 373> 485 49<232.5 295.5> 653 47<234.5 281.5 234.5 292.5>
VStem: 56 62<112 189.5 112 200> 373 58<128 272 272 272 314 365 365 368>
LayerCount: 2
Fore
SplineSet
258 653 m 0
 189 653 137 696 128 763 c 1
 168 772 l 1
 181 725 211 700 258 700 c 0
 305 700 336 725 349 772 c 1
 389 763 l 1
 380 696 327 653 258 653 c 0
431 116 m 2
 431 58 447 41 475 30 c 1
 462 -11 l 1
 416 -2 389 21 381 77 c 1
 344 17 288 -11 218 -11 c 0
 117 -11 56 52 56 145 c 0
 56 255 139 314 273 314 c 2
 373 314 l 1
 373 365 l 2
 373 448 339 485 252 485 c 0
 210 485 162 474 110 455 c 1
 95 499 l 1
 153 522 205 534 260 534 c 0
 379 534 431 475 431 368 c 2
 431 116 l 2
228 36 m 0
 294 36 340 69 373 128 c 1
 373 272 l 1
 282 272 l 2
 177 272 118 231 118 148 c 0
 118 76 159 36 228 36 c 0
EndSplineSet
EndChar
StartChar: uni0107
Encoding: 263 263 198
Width: 469
Flags: W
HStem: -11 51<239.5 311.5 239.5 315.5> 484 50<240.5 312>
VStem: 64 62<184 334.5 184 342>
LayerCount: 2
Fore
SplineSet
361 782 m 1
 387 730 l 1
 192 645 l 1
 173 679 l 1
 361 782 l 1
285 534 m 0
 344 534 389 519 433 481 c 1
 404 443 l 1
 370 470 336 484 288 484 c 0
 193 484 126 410 126 259 c 0
 126 109 192 40 287 40 c 0
 336 40 371 56 408 84 c 1
 436 45 l 1
 395 10 345 -11 286 -11 c 0
 152 -11 64 88 64 258 c 0
 64 426 151 534 285 534 c 0
EndSplineSet
EndChar
StartChar: uni010E
Encoding: 270 270 205
Width: 632
Flags: W
HStem: 0 50<171 258> 635 50<171 247 247 255 171 171>
VStem: 111 60<50 635 50 685 50 685> 503 63<225 473.5>
LayerCount: 2
Fore
SplineSet
421 888 m 1
 447 857 l 1
 318 756 l 1
 282 756 l 1
 152 857 l 1
 178 888 l 1
 300 808 l 1
 421 888 l 1
247 685 m 2
 406 685 566 630 566 348 c 0
 566 64 399 0 258 0 c 2
 111 0 l 1
 111 685 l 1
 247 685 l 2
255 635 m 2
 171 635 l 1
 171 50 l 1
 262 50 l 2
 380 50 503 102 503 348 c 0
 503 599 375 635 255 635 c 2
EndSplineSet
EndChar
StartChar: uni0111
Encoding: 273 273 208
Width: 591
Flags: W
HStem: -11 48<225 298> 0 21G<424 474 424 424> 486 48<233 304.5 205 311> 616 47<257 416 257 416 474 556> 716 20G<474 474> 723 20G<416 416>
VStem: 64 62<187 260 187 339.5> 416 58<134 407 407 407 463 616 0 616 663 736>
LayerCount: 2
Fore
SplineSet
474 663 m 1xb7
 556 663 l 1
 556 616 l 1
 474 616 l 1
 474 0 l 1
 424 0 l 1x77
 417 80 l 1
 386 28 336 -11 260 -11 c 0
 138 -11 64 93 64 259 c 0
 64 420 141 534 269 534 c 0
 340 534 386 500 416 463 c 1
 416 616 l 1
 257 616 l 1
 257 663 l 1
 416 663 l 1
 416 743 l 1xb7
 474 736 l 1xbb
 474 663 l 1xb7
269 37 m 0xb7
 338 37 380 72 416 134 c 1
 416 407 l 1
 385 451 343 486 279 486 c 0
 187 486 125 407 126 260 c 0
 126 114 181 37 269 37 c 0xb7
EndSplineSet
EndChar
StartChar: uni0112
Encoding: 274 274 209
Width: 512
Flags: W
HStem: 0 50<171 466 171 466> 330 50<171 414 171 414> 635 50<171 452 171 171> 802 47<168 409 168 409>
VStem: 111 60<50 330 380 635> 168 241<802 849 802 849>
LayerCount: 2
Fore
SplineSet
409 802 m 1xf4
 168 802 l 1
 168 849 l 1
 409 849 l 1
 409 802 l 1xf4
459 685 m 1
 452 635 l 1
 171 635 l 1
 171 380 l 1
 414 380 l 1
 414 330 l 1
 171 330 l 1
 171 50 l 1
 466 50 l 1
 466 0 l 1
 111 0 l 1
 111 685 l 1xf8
 459 685 l 1
EndSplineSet
EndChar
StartChar: uni0114
Encoding: 276 276 211
Width: 512
Flags: W
HStem: 0 50<171 466 171 466> 330 50<171 414 171 414> 635 50<171 452 171 171> 765 47<264.5 311.5 264.5 322.5>
VStem: 111 60<50 330 380 635>
LayerCount: 2
Fore
SplineSet
288 765 m 0
 219 765 167 808 158 865 c 1
 198 874 l 1
 211 837 241 812 288 812 c 0
 335 812 366 837 379 874 c 1
 419 865 l 1
 410 808 357 765 288 765 c 0
459 685 m 1
 452 635 l 1
 171 635 l 1
 171 380 l 1
 414 380 l 1
 414 330 l 1
 171 330 l 1
 171 50 l 1
 466 50 l 1
 466 0 l 1
 111 0 l 1
 111 685 l 1
 459 685 l 1
EndSplineSet
EndChar
StartChar: uni011E
Encoding: 286 286 221
Width: 618
Flags: W
HStem: -11 51<281.5 377 281.5 386> 319 50<359 493 359 359> 645 51<297 382.5> 765 47<327.5 374.5 327.5 385.5>
VStem: 66 63<240 454 240 463> 493 59<76 319 319 319>
LayerCount: 2
Fore
SplineSet
351 765 m 0
 282 765 230 808 221 865 c 1
 261 874 l 1
 274 837 304 812 351 812 c 0
 398 812 429 837 442 874 c 1
 482 865 l 1
 473 808 420 765 351 765 c 0
352 696 m 0
 432 696 484 673 540 628 c 1
 504 590 l 1
 456 628 413 645 352 645 c 0
 242 645 129 563 129 345 c 0
 129 135 214 40 349 40 c 0
 405 40 450 52 493 76 c 1
 493 319 l 1
 359 319 l 1
 352 369 l 1
 552 369 l 1
 552 45 l 1
 491 10 423 -11 349 -11 c 0
 179 -11 66 108 66 345 c 0
 66 581 205 696 352 696 c 0
EndSplineSet
EndChar
StartChar: uni0123
Encoding: 291 291 226
Width: 506
Flags: W
HStem: -205 48<188.5 312 188.5 327.5> 29 50<172.5 310 225 301> 183 42<237.5 290.5 208 309> 489 45<203.5 248 190.5 292.5> 497 37 514 20G<190.5 248> 548 20G<477 477>
VStem: 56 60<322 395.5 315 409.5> 87 55<117.5 138.5> 205 88<619 639> 380 59<314.5 391 304 397> 419 59<-89 -30>
LayerCount: 2
Fore
SplineSet
249 588 m 0xf360
 222 588 205 607 205 631 c 0
 205 647 210 660 227 697 c 2
 267 783 l 1
 303 783 l 1
 271 668 l 1
 284 660 293 648 293 631 c 0
 293 607 274 588 249 588 c 0xf360
477 568 m 1
 495 512 l 1xe760
 459 502 413 498 350 497 c 1
 405 471 439 427 439 355 c 0xeb60
 439 253 368 183 250 183 c 0
 225 183 202 186 182 193 c 1
 157 179 142 157 142 133 c 0
 142 102 162 79 225 79 c 2
 310 79 l 2
 414 79 478 23 478 -55 c 0
 478 -149 404 -205 251 -205 c 0
 93 -205 33 -159 33 -55 c 1
 87 -55 l 1
 88 -128 126 -157 251 -157 c 0
 373 -157 419 -120 419 -58 c 0
 419 -2 375 29 301 29 c 2
 216 29 l 2
 129 29 87 71 87 121 c 0xf2d0
 87 156 108 187 144 210 c 1
 84 241 56 287 56 357 c 0
 56 462 133 534 248 534 c 0
 388 532 426 547 477 568 c 1
248 489 m 0xf360
 159 489 116 434 116 357 c 0
 116 273 168 225 248 225 c 0
 333 225 380 273 380 356 c 0
 380 438 337 489 248 489 c 0xf360
EndSplineSet
EndChar
StartChar: uni0127
Encoding: 295 295 230
Width: 586
Flags: W
HStem: 0 21G<110 168 110 110 429 487 429 429> 487 47<304 361.5> 616 47<35 110 35 110 168 334> 716 20G<110 110> 723 20G<168 168>
VStem: 110 58<0 379 0 436 436 616 663 736 736 736> 429 58<0 366 366 374 0 408.5>
LayerCount: 2
Fore
SplineSet
341 534 m 0xee
 435 534 487 473 487 374 c 2
 487 0 l 1
 429 0 l 1
 429 366 l 2
 429 451 393 487 330 487 c 0
 259 487 211 443 168 379 c 1
 168 0 l 1
 110 0 l 1
 110 616 l 1
 35 616 l 1
 35 663 l 1
 110 663 l 1
 110 736 l 1xf6
 168 743 l 1
 168 663 l 1
 334 663 l 1
 334 616 l 1
 168 616 l 1
 168 436 l 1
 210 495 267 534 341 534 c 0xee
EndSplineSet
EndChar
StartChar: uni0128
Encoding: 296 296 231
Width: 282
Flags: W
HStem: 0 21G<111 171 111 111> 665 20G<111 171 171 171> 792 47<179.5 209.5 179.5 217> 838 46<70.5 99>
VStem: 111 60<0 685 0 685>
LayerCount: 2
Fore
SplineSet
199 792 m 0xe8
 148 792 116 838 82 838 c 0
 59 838 44 825 26 798 c 1
 -10 816 l 1
 12 856 42 884 82 884 c 0xd8
 129 884 160 839 199 839 c 0
 220 839 235 851 255 882 c 1
 291 864 l 1
 267 814 235 792 199 792 c 0xe8
171 685 m 1
 171 0 l 1
 111 0 l 1
 111 685 l 1
 171 685 l 1
EndSplineSet
EndChar
StartChar: uni012E
Encoding: 302 302 237
Width: 282
Flags: W
HStem: -218 48<90 117> 0 21G<171 171> 665 20G<111 171 171 171>
VStem: -5 54<-133.5 -98> 111 60<6 685>
LayerCount: 2
Fore
SplineSet
171 0 m 1
 83 -40 49 -71 49 -118 c 0
 49 -149 68 -170 112 -170 c 0
 131 -170 148 -168 170 -163 c 1
 164 -211 l 1
 144 -215 128 -218 106 -218 c 0
 33 -218 -5 -178 -5 -126 c 0
 -5 -70 34 -29 111 6 c 1
 111 685 l 1
 171 685 l 1
 171 0 l 1
EndSplineSet
EndChar
StartChar: uni012F
Encoding: 303 303 238
Width: 267
Flags: W
HStem: -218 48<81 108> 0 21G<162 163 162 162> 503 20G<105 163 163 163> 669 84<120 146.5>
VStem: -14 54<-133.5 -97.5> 90 87<699.5 722.5> 105 58<7 523 0 523>
LayerCount: 2
Fore
SplineSet
133 753 m 0xfc
 160 753 177 734 177 711 c 0
 177 688 160 669 133 669 c 0
 107 669 90 688 90 711 c 0
 90 734 107 753 133 753 c 0xfc
105 7 m 1xfa
 105 523 l 1
 163 523 l 1
 163 0 l 1
 162 0 l 1
 74 -40 40 -71 40 -118 c 0
 40 -149 59 -170 103 -170 c 0
 122 -170 139 -168 161 -163 c 1
 155 -211 l 1
 135 -215 119 -218 97 -218 c 0
 24 -218 -14 -178 -14 -126 c 0
 -14 -69 26 -28 105 7 c 1xfa
EndSplineSet
EndChar
StartChar: uni0135
Encoding: 309 309 244
Width: 268
Flags: W
HStem: -203 21G<23 23> 503 20G<106 164 164 164>
VStem: 106 58<17 19 19 523>
LayerCount: 2
Fore
SplineSet
13 643 m 1
 -13 674 l 1
 116 779 l 1
 152 779 l 1
 282 674 l 1
 256 643 l 1
 134 728 l 1
 13 643 l 1
164 523 m 1
 164 19 l 2
 164 -121 118 -159 23 -203 c 1
 6 -161 l 1
 75 -127 106 -99 106 17 c 2
 106 523 l 1
 164 523 l 1
EndSplineSet
EndChar
StartChar: uni013D
Encoding: 317 317 252
Width: 477
Flags: W
HStem: 0 54<171 449> 506 20G<235 235> 665 20G<111 171 171 171 309 309>
VStem: 111 60<54 685 54 685 54 685>
LayerCount: 2
Fore
SplineSet
270 521 m 1
 309 685 l 1
 254 691 l 1
 235 526 l 1
 270 521 l 1
171 685 m 1
 171 54 l 1
 457 54 l 1
 449 0 l 1
 111 0 l 1
 111 685 l 1
 171 685 l 1
EndSplineSet
EndChar
StartChar: uni0145
Encoding: 325 325 260
Width: 673
Flags: W
HStem: 0 21G<111 168 111 111 483 562 483 483> 0 66<513 513 513 562 483 513> 619 66<160 160> 665 20G<111 188 188 188 505 562 562 562>
VStem: 111 57<0 383 0 685> 293 88<-135 -115 -135 -115> 505 57<269 685 0 685>
LayerCount: 2
Fore
SplineSet
562 685 m 1x9a
 562 0 l 1
 483 0 l 1
 160 619 l 1xae
 163 572 168 506 168 383 c 2
 168 0 l 1
 111 0 l 1
 111 685 l 1
 188 685 l 1
 513 66 l 1x5a
 511 95 505 180 505 269 c 2
 505 685 l 1
 562 685 l 1x9a
337 -85 m 0
 363 -85 381 -103 381 -127 c 0
 381 -143 376 -156 358 -193 c 2
 318 -279 l 1
 283 -279 l 1
 315 -165 l 1
 301 -156 293 -144 293 -127 c 0
 293 -103 312 -85 337 -85 c 0
EndSplineSet
EndChar
StartChar: uni0147
Encoding: 327 327 262
Width: 673
Flags: W
HStem: 0 21G<111 168 111 111 483 562 483 483> 0 66<513 513 513 562 483 513> 619 66<160 160> 665 20G<111 188 188 188 505 562 562 562>
VStem: 111 57<0 383 0 685> 505 57<269 685 0 685>
LayerCount: 2
Fore
SplineSet
466 888 m 1x9c
 492 857 l 1
 363 756 l 1
 327 756 l 1
 197 857 l 1
 223 888 l 1
 345 808 l 1
 466 888 l 1x9c
562 685 m 1
 562 0 l 1
 483 0 l 1
 160 619 l 1xac
 163 572 168 506 168 383 c 2
 168 0 l 1
 111 0 l 1
 111 685 l 1
 188 685 l 1
 513 66 l 1x5c
 511 95 505 180 505 269 c 2
 505 685 l 1
 562 685 l 1
EndSplineSet
EndChar
StartChar: uni014C
Encoding: 332 332 267
Width: 691
Flags: W
HStem: -11 51<281.5 412 281.5 430> 645 51<280.5 411> 802 47<225 466 225 466>
VStem: 66 63<238.5 445 238.5 454> 225 241<802 849 802 849> 562 63<239 446>
LayerCount: 2
Fore
SplineSet
466 802 m 1
 225 802 l 1
 225 849 l 1
 466 849 l 1
 466 802 l 1
345 696 m 0
 512 696 625 573 625 342 c 0
 625 117 515 -11 345 -11 c 0
 180 -11 66 113 66 341 c 0
 66 567 181 696 345 696 c 0
345 645 m 0
 216 645 129 549 129 341 c 0
 129 136 218 40 345 40 c 0
 479 40 562 136 562 342 c 0
 562 550 477 645 345 645 c 0
EndSplineSet
EndChar
StartChar: uni014F
Encoding: 335 335 270
Width: 571
Flags: W
HStem: -11 49<235 335 235 354> 485 49<236.5 336.5> 653 47<261.5 308.5 261.5 319.5>
VStem: 64 62<187.5 336 187.5 345> 446 61<188 336.5>
LayerCount: 2
Fore
SplineSet
285 653 m 0
 216 653 164 696 155 763 c 1
 195 772 l 1
 208 725 238 700 285 700 c 0
 332 700 363 725 376 772 c 1
 416 763 l 1
 407 696 354 653 285 653 c 0
286 534 m 0
 425 534 507 434 507 263 c 0
 507 94 423 -11 285 -11 c 0
 146 -11 64 93 64 261 c 0
 64 429 149 534 286 534 c 0
286 485 m 0
 187 485 126 411 126 261 c 0
 126 114 185 38 285 38 c 0
 385 38 446 113 446 263 c 0
 446 410 387 485 286 485 c 0
EndSplineSet
EndChar
StartChar: uni0157
Encoding: 343 343 278
Width: 372
Flags: W
HStem: 0 21G<105 163 105 105> 479 55<271 311> 503 20G<105 155 155 155> 508 20G<359 359>
VStem: 90 88<-135 -115 -135 -115> 105 58<0 320 0 523>
LayerCount: 2
Fore
SplineSet
307 534 m 0xc4
 328 534 346 532 359 528 c 1x94
 348 473 l 1
 334 477 320 479 302 479 c 0xc4
 230 479 191 427 163 320 c 1
 163 0 l 1
 105 0 l 1
 105 523 l 1
 155 523 l 1xa4
 160 406 l 1
 187 492 235 534 307 534 c 0xc4
134 -85 m 0xc8
 160 -85 178 -103 178 -127 c 0
 178 -143 173 -156 155 -193 c 2
 115 -279 l 1
 80 -279 l 1
 112 -165 l 1
 98 -156 90 -144 90 -127 c 0
 90 -103 109 -85 134 -85 c 0xc8
EndSplineSet
EndChar
StartChar: uni0162
Encoding: 354 354 289
Width: 495
Flags: W
HStem: -227 42<249.5 277.5 249.5 292> -206 21G -96 32<230 277> 0 21G<218 239 218 218> 632 53<15 218 15 485 277 277 277 478>
VStem: 218 59<0 632> 319 51<-156 -125.5>
LayerCount: 2
Fore
SplineSet
277 -64 m 1x7e
 342 -69 370 -99 370 -140 c 0
 370 -197 321 -227 263 -227 c 0xbe
 229 -227 203 -218 185 -206 c 1x7e
 203 -170 l 1
 219 -179 237 -185 262 -185 c 0xbe
 293 -185 319 -172 319 -140 c 0
 319 -111 293 -96 230 -96 c 1
 239 0 l 1
 218 0 l 1
 218 632 l 1
 15 632 l 1
 15 685 l 1
 485 685 l 1
 478 632 l 1
 277 632 l 1
 277 -64 l 1x7e
EndSplineSet
EndChar
StartChar: uni0166
Encoding: 358 358 293
Width: 495
Flags: W
HStem: -1 21G<218 277 218 218> 337 47<94 218 94 218 277 402> 631 53<15 218 15 485 277 478 277 277>
VStem: 218 59<-1 337 -1 337 384 631>
LayerCount: 2
Fore
SplineSet
478 631 m 1
 277 631 l 1
 277 384 l 1
 402 384 l 1
 402 337 l 1
 277 337 l 1
 277 -1 l 1
 218 -1 l 1
 218 337 l 1
 94 337 l 1
 94 384 l 1
 218 384 l 1
 218 631 l 1
 15 631 l 1
 15 684 l 1
 485 684 l 1
 478 631 l 1
EndSplineSet
EndChar
StartChar: uni0168
Encoding: 360 360 295
Width: 652
Flags: W
HStem: -11 52<268.5 383.5 268.5 401> 665 20G<101 161 161 161 490 551 551 551> 792 47<365.5 395.5 365.5 403> 838 46<256.5 285>
VStem: 101 60<214 219 219 685> 490 61<219 685>
LayerCount: 2
Fore
SplineSet
385 792 m 0xec
 334 792 302 838 268 838 c 0
 245 838 230 825 212 798 c 1
 176 816 l 1
 198 856 228 884 268 884 c 0xdc
 315 884 346 839 385 839 c 0
 406 839 421 851 441 882 c 1
 477 864 l 1
 453 814 421 792 385 792 c 0xec
551 685 m 1
 551 214 l 2
 551 82 476 -11 326 -11 c 0
 174 -11 101 82 101 214 c 2
 101 685 l 1
 161 685 l 1
 161 219 l 2
 161 108 211 41 326 41 c 0
 441 41 490 109 490 219 c 2
 490 685 l 1
 551 685 l 1
EndSplineSet
EndChar
StartChar: uni0170
Encoding: 368 368 303
Width: 652
Flags: W
HStem: -11 52<268.5 383.5 268.5 401> 665 20G<101 161 161 161 490 551 551 551> 727 20G<360 360>
VStem: 101 60<214 219 219 685> 490 61<219 685>
LayerCount: 2
Fore
SplineSet
336 907 m 1
 380 876 l 1
 264 731 l 1
 234 751 l 1
 336 907 l 1
470 898 m 1
 513 865 l 1
 389 726 l 1
 360 747 l 1
 470 898 l 1
551 685 m 1
 551 214 l 2
 551 82 476 -11 326 -11 c 0
 174 -11 101 82 101 214 c 2
 101 685 l 1
 161 685 l 1
 161 219 l 2
 161 108 211 41 326 41 c 0
 441 41 490 109 490 219 c 2
 490 685 l 1
 551 685 l 1
EndSplineSet
EndChar
StartChar: uni0173
Encoding: 371 371 306
Width: 576
Flags: W
HStem: -218 48<390 417> -11 21G -11 48<226.5 287.5> 0 21G<471 471> 503 20G<99 157 157 157 413 471 471 471>
VStem: 99 58<149 155 155 523> 295 54<-133.5 -96.5> 413 58<144 523>
LayerCount: 2
Fore
SplineSet
471 0 m 1x9f
 383 -40 349 -71 349 -118 c 0
 349 -149 368 -170 412 -170 c 0
 431 -170 448 -168 470 -163 c 1
 464 -211 l 1
 444 -215 428 -218 406 -218 c 0
 333 -218 295 -178 295 -126 c 0
 295 -67 337 -25 422 10 c 1xcf
 418 93 l 1
 382 31 328 -11 247 -11 c 0
 154 -11 99 46 99 149 c 2
 99 523 l 1
 157 523 l 1
 157 155 l 2
 157 72 192 37 261 37 c 0xaf
 329 37 377 82 413 144 c 1
 413 523 l 1
 471 523 l 1
 471 0 l 1x9f
EndSplineSet
EndChar
StartChar: uni017B
Encoding: 379 379 314
Width: 516
Flags: W
HStem: 0 53<104 454> 633 52<73 402 73 468> 795 84<250 276.5>
VStem: 220 87<825.5 848.5>
LayerCount: 2
Fore
SplineSet
263 879 m 0
 290 879 307 860 307 837 c 0
 307 814 290 795 263 795 c 0
 237 795 220 814 220 837 c 0
 220 860 237 879 263 879 c 0
468 685 m 1
 468 636 l 1
 104 53 l 1
 462 53 l 1
 454 0 l 1
 35 0 l 1
 35 50 l 1
 402 633 l 1
 73 633 l 1
 73 685 l 1
 468 685 l 1
EndSplineSet
EndChar
StartChar: uni017D
Encoding: 381 381 316
Width: 516
Flags: W
HStem: 0 53<104 454> 633 52<73 402 73 468>
VStem: 35 433
LayerCount: 2
Fore
SplineSet
384 888 m 1
 410 857 l 1
 281 756 l 1
 245 756 l 1
 115 857 l 1
 141 888 l 1
 263 808 l 1
 384 888 l 1
468 685 m 1
 468 636 l 1
 104 53 l 1
 462 53 l 1
 454 0 l 1
 35 0 l 1
 35 50 l 1
 402 633 l 1
 73 633 l 1
 73 685 l 1
 468 685 l 1
EndSplineSet
EndChar
StartChar: uni0188
Encoding: 392 392 327
Width: 469
Flags: W
HStem: -11 51<239.5 311.5 239.5 315.5> 484 50<240.5 303 218 314> 695 48<482.5 519>
VStem: 64 62<184 334.5 184 342> 375 58<514 609 609 612 481 654>
LayerCount: 2
Fore
SplineSet
500 743 m 0
 547 743 580 726 602 709 c 1
 578 672 l 1
 556 685 536 695 502 695 c 0
 463 695 433 674 433 612 c 2
 433 481 l 1
 408 448 l 1
 375 469 340 484 288 484 c 0
 193 484 126 410 126 259 c 0
 126 109 192 40 287 40 c 0
 336 40 371 56 408 84 c 1
 436 45 l 1
 395 10 345 -11 286 -11 c 0
 152 -11 64 88 64 258 c 0
 64 426 151 534 285 534 c 0
 321 534 349 527 375 514 c 1
 375 609 l 2
 375 699 425 743 500 743 c 0
EndSplineSet
EndChar
StartChar: uni018C
Encoding: 396 396 331
Width: 579
Flags: W
HStem: -11 48<225 298> 0 21G<424 474 424 424> 486 48<233 304.5 205 311> 689 47<185 416 185 474>
VStem: 64 62<187 260 187 339.5> 416 58<134 407 407 407 463 689 689 689>
LayerCount: 2
Fore
SplineSet
474 736 m 1xbc
 474 0 l 1
 424 0 l 1x7c
 417 80 l 1
 386 28 336 -11 260 -11 c 0
 138 -11 64 93 64 259 c 0
 64 420 141 534 269 534 c 0
 340 534 386 500 416 463 c 1
 416 689 l 1
 185 689 l 1
 185 736 l 1
 474 736 l 1xbc
269 37 m 0xbc
 338 37 380 72 416 134 c 1
 416 407 l 1
 385 451 343 486 279 486 c 0
 187 486 125 407 126 260 c 0
 126 114 181 37 269 37 c 0xbc
EndSplineSet
EndChar
StartChar: uni0191
Encoding: 401 401 336
Width: 481
Flags: W
HStem: -205 49<26 62.5 26 83> 318 50<171 408 171 408> 635 50<171 446 171 171>
VStem: 111 60<-72 -71 -71 318 368 635>
LayerCount: 2
Fore
SplineSet
446 635 m 1
 171 635 l 1
 171 368 l 1
 408 368 l 1
 408 318 l 1
 171 318 l 1
 171 -71 l 2
 171 -161 120 -205 46 -205 c 0
 -1 -205 -34 -188 -56 -171 c 1
 -31 -133 l 1
 -11 -146 9 -156 43 -156 c 0
 82 -156 111 -133 111 -72 c 2
 111 685 l 1
 453 685 l 1
 446 635 l 1
EndSplineSet
EndChar
StartChar: uni0192
Encoding: 402 402 337
Width: 323
Flags: W
HStem: -203 21G<32 32> 476 47<28 114 28 114 172 302> 695 48<232.5 278.5>
VStem: 114 58<17 19 19 476 523 607>
LayerCount: 2
Fore
SplineSet
262 695 m 0
 203 695 172 669 172 607 c 2
 172 523 l 1
 310 523 l 1
 302 476 l 1
 172 476 l 1
 172 19 l 2
 172 -121 126 -159 32 -203 c 1
 15 -161 l 1
 84 -127 114 -99 114 17 c 2
 114 476 l 1
 28 476 l 1
 28 523 l 1
 114 523 l 1
 114 609 l 2
 114 691 169 743 259 743 c 0
 304 743 343 733 381 715 c 1
 361 672 l 1
 327 687 295 695 262 695 c 0
EndSplineSet
EndChar
StartChar: uni019B
Encoding: 411 411 346
Width: 473
Flags: W
HStem: -9 21G<87 87 426 426> 550 20G<86 86> 671 20G<205 205> 724 20G<85 85>
VStem: 31 449<5 13>
LayerCount: 2
Fore
SplineSet
294 493 m 0
 360 180 414 100 480 13 c 1
 426 -9 l 1
 360 83 304 168 244 464 c 1
 87 -9 l 1
 31 5 l 1
 206 510 l 1
 235 510 l 1
 225 557 214 593 198 621 c 1
 129 551 l 1
 86 570 l 1
 170 656 l 1
 148 677 118 691 76 700 c 1
 85 744 l 1
 137 733 176 717 205 691 c 1
 272 762 l 1
 307 731 l 1
 234 658 l 1
 261 619 278 566 294 493 c 0
EndSplineSet
EndChar
StartChar: uni019E
Encoding: 414 414 349
Width: 582
Flags: W
HStem: -205 21G<483 483> -197 21G<425 425> 0 21G<105 163 105 105 423 425 423 423> 487 47<298.5 357> 503 20G<105 155 155 155>
VStem: 105 58<0 379 0 523> 423 58<1 1 1 366 366 374>
LayerCount: 2
Fore
SplineSet
481 1 m 1x76
 483 1 l 1x76
 483 -205 l 1xb6
 425 -197 l 1
 425 0 l 1
 423 0 l 1
 423 366 l 2
 423 452 389 487 325 487 c 0x76
 254 487 205 443 163 379 c 1
 163 0 l 1
 105 0 l 1
 105 523 l 1
 155 523 l 1x6e
 160 435 l 1
 202 494 261 534 336 534 c 0
 431 534 481 475 481 374 c 2
 481 1 l 1x76
EndSplineSet
EndChar
StartChar: uni01AE
Encoding: 430 430 365
Width: 495
Flags: W
HStem: -205 49<325.5 362 325.5 366> 632 53<15 218 15 485 277 277 277 478>
VStem: 218 59<-71 632>
LayerCount: 2
Fore
SplineSet
277 -72 m 2
 277 -133 306 -156 345 -156 c 0
 379 -156 399 -146 420 -133 c 1
 445 -171 l 1
 422 -188 389 -205 343 -205 c 0
 268 -205 218 -161 218 -71 c 2
 218 632 l 1
 15 632 l 1
 15 685 l 1
 485 685 l 1
 478 632 l 1
 277 632 l 1
 277 -72 l 2
EndSplineSet
EndChar
StartChar: uni01B2
Encoding: 434 434 369
Width: 652
Flags: W
HStem: -11 52<259 359 259 375.5> 646 50<439 461.5> 665 20G<101 161 161 161>
VStem: 101 60<193 197 197 685> 490 61<299 587 587 588>
LayerCount: 2
Fore
SplineSet
452 696 m 0xd8
 514 696 551 662 551 588 c 2
 551 294 l 2
 551 99 448 -11 303 -11 c 0
 178 -11 101 71 101 193 c 2
 101 685 l 1
 161 685 l 1xb8
 161 197 l 2
 161 97 215 41 303 41 c 0
 415 41 490 128 490 299 c 2
 490 587 l 2
 490 627 478 646 445 646 c 0
 429 646 416 643 404 637 c 1
 387 679 l 1
 404 689 426 696 452 696 c 0xd8
EndSplineSet
EndChar
StartChar: uni01C0
Encoding: 448 448 383
Width: 277
Flags: W
HStem: 0 21G<111 166 111 111> 716 20G<111 111> 723 20G<166 166>
VStem: 111 55<0 736 736 736>
LayerCount: 2
Fore
SplineSet
166 743 m 1xb0
 166 0 l 1
 111 0 l 1
 111 736 l 1xd0
 166 743 l 1xb0
EndSplineSet
EndChar
StartChar: uni01C2
Encoding: 450 450 385
Width: 316
Flags: W
HStem: 0 21G<131 186 131 131> 269 44<26 131 26 131 186 290> 418 44<26 131 26 131 186 290> 716 20G<131 131> 723 20G<186 186>
VStem: 131 55<0 269 0 269 313 418 462 736 736 736>
LayerCount: 2
Fore
SplineSet
290 418 m 1xec
 186 418 l 1
 186 313 l 1
 290 313 l 1
 290 269 l 1
 186 269 l 1
 186 0 l 1
 131 0 l 1
 131 269 l 1
 26 269 l 1
 26 313 l 1
 131 313 l 1
 131 418 l 1
 26 418 l 1
 26 462 l 1
 131 462 l 1
 131 736 l 1xf4
 186 743 l 1
 186 462 l 1
 290 462 l 1
 290 418 l 1xec
EndSplineSet
EndChar
StartChar: uni01C8
Encoding: 456 456 391
Width: 735
Flags: W
HStem: -203 21G<490 490> 0 54<171 449> 503 20G<573 631 631 631> 665 20G<111 171 171 171> 669 84<588 614.5>
VStem: 111 60<54 685 54 685 54 685> 558 87<699.5 722.5> 573 58<17 19 19 523>
LayerCount: 2
Fore
SplineSet
601 753 m 0xee
 628 753 645 734 645 711 c 0
 645 688 628 669 601 669 c 0
 575 669 558 688 558 711 c 0
 558 734 575 753 601 753 c 0xee
171 685 m 1xf5
 171 54 l 1
 457 54 l 1
 449 0 l 1
 111 0 l 1
 111 685 l 1
 171 685 l 1xf5
631 523 m 1
 631 19 l 2
 631 -121 585 -159 490 -203 c 1
 473 -161 l 1
 542 -127 573 -99 573 17 c 2
 573 523 l 1
 631 523 l 1
EndSplineSet
EndChar
StartChar: uni01CA
Encoding: 458 458 393
Width: 963
Flags: W
HStem: 0 21G<111 168 111 111 483 562 483 483> 0 66<513 513 513 562 483 513> 619 66<160 160> 665 20G<111 188 188 188 505 562 562 562 798 858 858 858>
VStem: 111 57<0 383 0 685> 505 57<269 685 0 685> 798 60<95 685>
LayerCount: 2
Fore
SplineSet
562 685 m 1x9e
 562 0 l 1
 483 0 l 1
 160 619 l 1xae
 163 572 168 506 168 383 c 2
 168 0 l 1
 111 0 l 1
 111 685 l 1
 188 685 l 1
 513 66 l 1x5e
 511 95 505 180 505 269 c 2
 505 685 l 1
 562 685 l 1x9e
858 685 m 1
 858 92 l 2
 858 -30 814 -76 702 -119 c 1
 686 -75 l 1
 777 -35 798 2 798 95 c 2
 798 685 l 1
 858 685 l 1
EndSplineSet
EndChar
StartChar: uni01CC
Encoding: 460 460 395
Width: 849
Flags: W
HStem: -203 21G<604 604> 0 21G<105 163 105 105 423 481 423 423> 487 47<298.5 357> 503 20G<105 155 155 155 687 745 745 745> 669 84<702 728.5>
VStem: 105 58<0 379 0 523> 423 58<0 366 366 374 0 409> 672 87<699.5 722.5> 687 58<17 19 19 523>
LayerCount: 2
Fore
SplineSet
715 753 m 0xef
 742 753 759 734 759 711 c 0
 759 688 742 669 715 669 c 0
 689 669 672 688 672 711 c 0
 672 734 689 753 715 753 c 0xef
336 534 m 0
 431 534 481 475 481 374 c 2
 481 0 l 1
 423 0 l 1
 423 366 l 2
 423 452 389 487 325 487 c 0xee80
 254 487 205 443 163 379 c 1
 163 0 l 1
 105 0 l 1
 105 523 l 1
 155 523 l 1xde80
 160 435 l 1
 202 494 261 534 336 534 c 0
687 17 m 2xde80
 687 523 l 1
 745 523 l 1
 745 19 l 2
 745 -121 699 -159 604 -203 c 1
 587 -161 l 1
 656 -127 687 -99 687 17 c 2xde80
EndSplineSet
EndChar
StartChar: uni01D1
Encoding: 465 465 400
Width: 691
Flags: W
HStem: -11 51<281.5 412 281.5 430> 645 51<280.5 411>
VStem: 66 63<238.5 445 238.5 454> 562 63<239 446>
LayerCount: 2
Fore
SplineSet
467 888 m 1
 493 857 l 1
 364 756 l 1
 328 756 l 1
 198 857 l 1
 224 888 l 1
 346 808 l 1
 467 888 l 1
345 696 m 0
 512 696 625 573 625 342 c 0
 625 117 515 -11 345 -11 c 0
 180 -11 66 113 66 341 c 0
 66 567 181 696 345 696 c 0
345 645 m 0
 216 645 129 549 129 341 c 0
 129 136 218 40 345 40 c 0
 479 40 562 136 562 342 c 0
 562 550 477 645 345 645 c 0
EndSplineSet
EndChar
StartChar: uni01D2
Encoding: 466 466 401
Width: 571
Flags: W
HStem: -11 49<235 335 235 354> 485 49<236.5 336.5> 633 52<286 286 286 304 268 286> 665 20G<286 286> 719 20G<138 138 433 433>
VStem: 64 62<187.5 336 187.5 345> 446 61<188 336.5>
LayerCount: 2
Fore
SplineSet
407 769 m 1xde
 433 739 l 1
 304 633 l 1
 268 633 l 1xee
 138 739 l 1
 164 769 l 1
 286 685 l 1
 407 769 l 1xde
286 534 m 0
 425 534 507 434 507 263 c 0
 507 94 423 -11 285 -11 c 0
 146 -11 64 93 64 261 c 0
 64 429 149 534 286 534 c 0
286 485 m 0
 187 485 126 411 126 261 c 0
 126 114 185 38 285 38 c 0
 385 38 446 113 446 263 c 0
 446 410 387 485 286 485 c 0
EndSplineSet
EndChar
StartChar: uni01E0
Encoding: 480 480 415
Width: 565
Flags: W
HStem: 0 21G<16 77 16 16 485 548 485 485> 187 51<154 409 154 425 137 409> 636 49<282 282> 743 84<270 296.5> 878 47<164 405 164 405>
VStem: 164 241<878 925 878 925> 240 87<772.5 796>
LayerCount: 2
Fore
SplineSet
405 925 m 1xfc
 405 878 l 1
 164 878 l 1
 164 925 l 1
 405 925 l 1xfc
240 784 m 0xfa
 240 808 257 827 283 827 c 0
 310 827 327 808 327 784 c 0
 327 761 310 743 283 743 c 0
 257 743 240 761 240 784 c 0xfa
485 0 m 1
 425 187 l 1
 137 187 l 1
 77 0 l 1
 16 0 l 1
 245 685 l 1
 320 685 l 1
 548 0 l 1
 485 0 l 1
154 238 m 1
 409 238 l 1
 282 636 l 1
 154 238 l 1
EndSplineSet
EndChar
StartChar: uni01F7
Encoding: 503 503 438
Width: 574
Flags: W
HStem: 0 21G<111 171 111 111> 645 51<304 372> 665 20G<111 171 171 171>
VStem: 111 60<0 212 0 263 263 579 629 685> 462 63<455 557>
LayerCount: 2
Fore
SplineSet
341 696 m 0xd8
 446 696 525 630 525 514 c 0
 525 365 409 299 269 248 c 2
 171 212 l 1
 171 0 l 1
 111 0 l 1
 111 685 l 1
 171 685 l 1xb8
 171 629 l 1
 213 668 267 696 341 696 c 0xd8
269 299 m 2
 376 339 462 396 462 514 c 0
 462 600 411 645 333 645 c 0
 264 645 212 618 171 579 c 1
 171 263 l 1
 269 299 l 2
EndSplineSet
EndChar
StartChar: uni01FD
Encoding: 509 509 444
Width: 845
Flags: W
HStem: -11 47<194.5 259> 239 45<437 730 437 786 437 730> 272 43<275 283 283 375> 486 48<549.5 635.5>
VStem: 56 63<112 189.5 112 200> 375 62<239 272 239 272> 730 58<284 299 299 356>
LayerCount: 2
Fore
SplineSet
526 730 m 1xde
 331 645 l 1
 312 679 l 1
 500 782 l 1
 526 730 l 1xde
788 281 m 0
 788 265 787 249 786 239 c 1
 437 239 l 1xde
 443 97 509 38 599 38 c 0
 656 38 695 56 740 90 c 1
 768 53 l 1
 719 13 666 -11 596 -11 c 0
 512 -11 447 27 410 96 c 1
 356 19 298 -11 220 -11 c 0
 118 -11 56 52 56 145 c 0
 56 255 141 315 275 315 c 2
 375 315 l 1xbe
 375 365 l 2
 375 448 340 485 254 485 c 0
 211 485 164 474 112 455 c 1
 96 499 l 1
 154 522 206 534 261 534 c 0
 352 534 400 497 421 433 c 1
 456 498 511 534 588 534 c 0
 719 534 788 435 788 281 c 0
730 284 m 1
 730 299 l 2
 730 413 684 486 587 486 c 0
 505 486 443 426 437 284 c 1
 730 284 l 1
229 36 m 0
 296 36 342 68 391 141 c 1
 381 175 375 213 375 256 c 2
 375 272 l 1
 283 272 l 2xbe
 179 272 119 231 119 148 c 0
 119 76 160 36 229 36 c 0
EndSplineSet
EndChar
StartChar: uni0204
Encoding: 516 516 451
Width: 512
Flags: W
HStem: 0 50<171 466 171 466> 330 50<171 414 171 414> 635 50<171 452 171 171>
VStem: 111 60<50 330 380 635>
LayerCount: 2
Fore
SplineSet
171 937 m 1
 250 786 l 1
 212 768 l 1
 119 910 l 1
 171 937 l 1
301 937 m 1
 371 790 l 1
 333 773 l 1
 249 909 l 1
 301 937 l 1
459 685 m 1
 452 635 l 1
 171 635 l 1
 171 380 l 1
 414 380 l 1
 414 330 l 1
 171 330 l 1
 171 50 l 1
 466 50 l 1
 466 0 l 1
 111 0 l 1
 111 685 l 1
 459 685 l 1
EndSplineSet
EndChar
StartChar: uni020B
Encoding: 523 523 458
Width: 267
Flags: W
HStem: 0 21G<105 163 105 105> 503 20G<105 163 163 163> 695 47<109.5 156.5>
VStem: 105 58<0 523 0 523>
LayerCount: 2
Fore
SplineSet
133 742 m 0
 202 742 255 699 264 632 c 1
 224 623 l 1
 211 670 180 695 133 695 c 0
 86 695 56 670 43 623 c 1
 3 632 l 1
 12 699 64 742 133 742 c 0
163 523 m 1
 163 0 l 1
 105 0 l 1
 105 523 l 1
 163 523 l 1
EndSplineSet
EndChar
StartChar: uni020D
Encoding: 525 525 460
Width: 571
Flags: W
HStem: -11 49<235 335 235 354> 485 49<236.5 336.5>
VStem: 64 62<187.5 336 187.5 345> 446 61<188 336.5>
LayerCount: 2
Fore
SplineSet
177 811 m 1
 256 660 l 1
 218 642 l 1
 125 784 l 1
 177 811 l 1
307 811 m 1
 377 664 l 1
 339 647 l 1
 255 783 l 1
 307 811 l 1
286 534 m 0
 425 534 507 434 507 263 c 0
 507 94 423 -11 285 -11 c 0
 146 -11 64 93 64 261 c 0
 64 429 149 534 286 534 c 0
286 485 m 0
 187 485 126 411 126 261 c 0
 126 114 185 38 285 38 c 0
 385 38 446 113 446 263 c 0
 446 410 387 485 286 485 c 0
EndSplineSet
EndChar
StartChar: uni0213
Encoding: 531 531 466
Width: 372
Flags: W
HStem: 0 21G<105 163 105 105> 479 55<271 311> 503 20G<105 155 155 155> 508 20G<359 359> 695 47<207.5 254.5>
VStem: 105 58<0 320 0 523>
LayerCount: 2
Fore
SplineSet
231 695 m 0xcc
 184 695 154 670 141 623 c 1
 101 632 l 1
 110 699 162 742 231 742 c 0
 300 742 353 699 362 632 c 1
 322 623 l 1
 309 670 278 695 231 695 c 0xcc
160 406 m 1
 187 492 235 534 307 534 c 0xcc
 328 534 346 532 359 528 c 1x9c
 348 473 l 1
 334 477 320 479 302 479 c 0xcc
 230 479 191 427 163 320 c 1
 163 0 l 1
 105 0 l 1
 105 523 l 1
 155 523 l 1xac
 160 406 l 1
EndSplineSet
EndChar
StartChar: uni021A
Encoding: 538 538 473
Width: 495
Flags: W
HStem: 0 21G<218 277 218 218> 632 53<15 218 15 485 277 478 277 277>
VStem: 204 88<-135 -115 -135 -115> 218 59<0 632 0 632>
LayerCount: 2
Fore
SplineSet
485 685 m 1xd0
 478 632 l 1
 277 632 l 1
 277 0 l 1
 218 0 l 1
 218 632 l 1
 15 632 l 1
 15 685 l 1
 485 685 l 1xd0
248 -85 m 0xe0
 274 -85 292 -103 292 -127 c 0
 292 -143 287 -156 269 -193 c 2
 229 -279 l 1
 194 -279 l 1
 226 -165 l 1
 212 -156 204 -144 204 -127 c 0
 204 -103 223 -85 248 -85 c 0xe0
EndSplineSet
EndChar
StartChar: uni021B
Encoding: 539 539 474
Width: 344
Flags: W
HStem: -11 50<214.5 255> 476 47<18 106 18 106 164 292>
VStem: 106 58<127 130 130 476 523 648 648 648> 185 88<-135 -115 -135 -115>
LayerCount: 2
Fore
SplineSet
344 22 m 1
 312 1 276 -11 234 -11 c 0
 155 -11 106 36 106 127 c 2
 106 476 l 1
 18 476 l 1
 18 523 l 1
 106 523 l 1
 106 648 l 1
 164 655 l 1
 164 523 l 1
 299 523 l 1
 292 476 l 1
 164 476 l 1
 164 130 l 2
 164 69 188 39 241 39 c 0
 270 39 295 47 321 62 c 1
 344 22 l 1
229 -85 m 0xf0
 255 -85 273 -103 273 -127 c 0
 273 -143 268 -156 250 -193 c 2
 210 -279 l 1
 175 -279 l 1
 207 -165 l 1
 193 -156 185 -144 185 -127 c 0
 185 -103 204 -85 229 -85 c 0xf0
EndSplineSet
EndChar
StartChar: uni0222
Encoding: 546 546 481
Width: 640
Flags: W
HStem: -11 51<255.5 387 255.5 404.5> 356 51<263 378 263 386.5> 665 20G<113 173 173 173 471 531 531 531>
VStem: 66 63<149.5 242> 113 60<547 549 549 685> 471 60<549 685> 511 63<150 245 143 248.5>
LayerCount: 2
Fore
SplineSet
433 387 m 1xec
 526 358 574 290 574 200 c 0
 574 86 489 -11 320 -11 c 0
 155 -11 66 82 66 199 c 0xf2
 66 285 115 355 207 385 c 1
 140 416 113 475 113 547 c 2
 113 685 l 1
 173 685 l 1
 173 549 l 2
 173 469 206 407 320 407 c 0
 436 407 471 472 471 549 c 2
 471 685 l 1
 531 685 l 1
 531 547 l 2
 531 477 500 418 433 387 c 1xec
320 40 m 0xf2
 454 40 511 100 511 200 c 0
 511 297 453 356 320 356 c 0
 191 356 129 296 129 199 c 0
 129 100 191 40 320 40 c 0xf2
EndSplineSet
EndChar
StartChar: uni0224
Encoding: 548 548 483
Width: 516
Flags: W
HStem: -205 49<313.5 351 313.5 370> 0 53<104 399> 633 52<73 402 73 468>
VStem: 399 59<-72 -71 -71 0 0 0>
LayerCount: 2
Fore
SplineSet
468 685 m 1
 468 636 l 1
 104 53 l 1
 458 53 l 1
 458 -71 l 2
 458 -161 407 -205 333 -205 c 0
 286 -205 253 -188 231 -171 c 1
 255 -132 l 1
 276 -146 296 -156 331 -156 c 0
 371 -156 399 -133 399 -72 c 2
 399 0 l 1
 35 0 l 1
 35 50 l 1
 402 633 l 1
 73 633 l 1
 73 685 l 1
 468 685 l 1
EndSplineSet
EndChar
StartChar: uni0229
Encoding: 553 553 488
Width: 535
Flags: W
HStem: -227 42<277 305 277 319.5> -206 21G -96 32<256 304> -10 48<264 264 304 304> 239 45<126 420 126 475 126 420> 486 48<234 324.5>
VStem: 64 62<239 239 239 284 239 340.5> 260 44 345 51<-156 -125.5> 420 57<284 299 299 356>
LayerCount: 2
Fore
SplineSet
477 281 m 0x7f40
 477 265 476 249 475 239 c 1x7f40
 126 239 l 1
 133 97 199 38 289 38 c 0
 346 38 384 56 430 90 c 1
 457 53 l 1
 412 17 364 -7 304 -10 c 1
 304 -64 l 1
 369 -69 396 -99 396 -140 c 0
 396 -197 348 -227 291 -227 c 0xbfc0
 256 -227 229 -218 211 -206 c 1x7f40
 229 -170 l 1
 245 -179 264 -185 290 -185 c 0
 320 -185 345 -172 345 -140 c 0xbfc0
 345 -111 319 -96 256 -96 c 1
 264 -10 l 1
 139 0 64 98 64 257 c 0
 64 424 145 534 273 534 c 0
 409 534 477 435 477 281 c 0x7f40
420 284 m 1
 420 299 l 2
 420 413 374 486 275 486 c 0
 193 486 132 426 126 284 c 1
 420 284 l 1
EndSplineSet
EndChar
StartChar: uni022A
Encoding: 554 554 489
Width: 691
Flags: W
HStem: -11 51<281.5 412 281.5 430> 645 51<280.5 411> 744 79<238.5 261.5 427.5 450.5> 878 47<226 467 226 467>
VStem: 66 63<238.5 445 238.5 454> 210 80<772 794> 226 241<878 925 878 925> 399 80<772 794> 562 63<239 446>
LayerCount: 2
Fore
SplineSet
467 878 m 1xda80
 226 878 l 1
 226 925 l 1
 467 925 l 1
 467 878 l 1xda80
250 823 m 0xfd80
 273 823 290 805 290 783 c 0
 290 761 273 744 250 744 c 0
 227 744 210 761 210 783 c 0
 210 805 227 823 250 823 c 0xfd80
439 823 m 0
 462 823 479 805 479 783 c 0
 479 761 462 744 439 744 c 0
 416 744 399 761 399 783 c 0
 399 805 416 823 439 823 c 0
345 696 m 0
 512 696 625 573 625 342 c 0
 625 117 515 -11 345 -11 c 0
 180 -11 66 113 66 341 c 0
 66 567 181 696 345 696 c 0
345 645 m 0
 216 645 129 549 129 341 c 0
 129 136 218 40 345 40 c 0
 479 40 562 136 562 342 c 0
 562 550 477 645 345 645 c 0
EndSplineSet
EndChar
StartChar: uni022E
Encoding: 558 558 493
Width: 691
Flags: W
HStem: -11 51<281.5 412 281.5 430> 645 51<280.5 411> 795 84<332 358.5>
VStem: 66 63<238.5 445 238.5 454> 302 87<825.5 848.5> 562 63<239 446>
LayerCount: 2
Fore
SplineSet
345 879 m 0
 372 879 389 860 389 837 c 0
 389 814 372 795 345 795 c 0
 319 795 302 814 302 837 c 0
 302 860 319 879 345 879 c 0
345 696 m 0
 512 696 625 573 625 342 c 0
 625 117 515 -11 345 -11 c 0
 180 -11 66 113 66 341 c 0
 66 567 181 696 345 696 c 0
345 645 m 0
 216 645 129 549 129 341 c 0
 129 136 218 40 345 40 c 0
 479 40 562 136 562 342 c 0
 562 550 477 645 345 645 c 0
EndSplineSet
EndChar
StartChar: uni0230
Encoding: 560 560 495
Width: 691
Flags: W
HStem: -11 51<281.5 412 281.5 430> 645 51<280.5 411> 743 84<333 359.5> 878 47<227 468 227 468>
VStem: 66 63<238.5 445 238.5 454> 227 241<878 925 878 925> 303 87<772.5 796> 562 63<239 446>
LayerCount: 2
Fore
SplineSet
468 878 m 1xdd
 227 878 l 1
 227 925 l 1
 468 925 l 1
 468 878 l 1xdd
346 827 m 0xfb
 373 827 390 808 390 784 c 0
 390 761 373 743 346 743 c 0
 320 743 303 761 303 784 c 0
 303 808 320 827 346 827 c 0xfb
345 696 m 0
 512 696 625 573 625 342 c 0
 625 117 515 -11 345 -11 c 0
 180 -11 66 113 66 341 c 0
 66 567 181 696 345 696 c 0
345 645 m 0
 216 645 129 549 129 341 c 0
 129 136 218 40 345 40 c 0
 479 40 562 136 562 342 c 0
 562 550 477 645 345 645 c 0
EndSplineSet
EndChar
StartChar: uni0231
Encoding: 561 561 496
Width: 571
Flags: W
HStem: -11 49<235 335 235 354> 485 49<236.5 336.5> 619 84<272 298.5> 757 47<166 407 166 407>
VStem: 64 62<187.5 336 187.5 345> 166 241<757 804 757 804> 242 87<649.5 672.5> 446 61<188 336.5>
LayerCount: 2
Fore
SplineSet
407 757 m 1xdd
 166 757 l 1
 166 804 l 1
 407 804 l 1
 407 757 l 1xdd
285 703 m 0xfb
 312 703 329 684 329 661 c 0
 329 638 312 619 285 619 c 0
 259 619 242 638 242 661 c 0
 242 684 259 703 285 703 c 0xfb
286 534 m 0
 425 534 507 434 507 263 c 0
 507 94 423 -11 285 -11 c 0
 146 -11 64 93 64 261 c 0
 64 429 149 534 286 534 c 0
286 485 m 0
 187 485 126 411 126 261 c 0
 126 114 185 38 285 38 c 0
 385 38 446 113 446 263 c 0
 446 410 387 485 286 485 c 0
EndSplineSet
EndChar
StartChar: uni0232
Encoding: 562 562 497
Width: 523
Flags: W
HStem: 0 21G<232 292 232 232> 665 20G<13 80 80 80 445 509 509 509> 802 47<141 382 141 382>
VStem: 141 241<802 849 802 849> 232 60<0 267 267 267>
LayerCount: 2
Fore
SplineSet
382 802 m 1xf0
 141 802 l 1
 141 849 l 1
 382 849 l 1
 382 802 l 1xf0
509 685 m 1
 292 268 l 1
 292 0 l 1
 232 0 l 1
 232 267 l 1xe8
 13 685 l 1
 80 685 l 1
 264 321 l 1
 445 685 l 1
 509 685 l 1
EndSplineSet
EndChar
StartChar: uni0233
Encoding: 563 563 498
Width: 468
Flags: W
HStem: -204 21G<59 59> 0 21G<197 217 197 197> 503 20G<15 78 78 78 391 452 452 452> 676 47<113 354 113 354>
VStem: 113 241<676 723 676 723>
LayerCount: 2
Fore
SplineSet
354 676 m 1
 113 676 l 1
 113 723 l 1
 354 723 l 1
 354 676 l 1
452 523 m 1
 273 -2 l 2
 234 -116 187 -179 59 -204 c 1
 53 -159 l 1
 158 -133 184 -92 217 0 c 1
 197 0 l 1
 15 523 l 1
 78 523 l 1
 236 43 l 1
 391 523 l 1
 452 523 l 1
EndSplineSet
EndChar
StartChar: uni0238
Encoding: 568 568 503
Width: 846
Flags: W
HStem: -11 48<220 283.5 561 625.5> 0 21G<404 447 404 404> 486 48<227 288.5 199.5 294.5 571 631.5> 716 20G<396 396> 723 20G<454 454>
VStem: 64 62<187 260 187 339.5> 396 58<138 397 138 401 138 401 454 736 736 736> 400.5 49.5 720 62<188 341>
LayerCount: 2
Fore
SplineSet
603 534 m 0xae80
 712 534 782 438 782 264 c 0
 782 96 710 -11 593 -11 c 0
 529 -11 481 30 453 81 c 1xad80
 447 0 l 1
 404 0 l 1x6d80
 397 80 l 1xad80
 366 28 317 -11 250 -11 c 0
 138 -11 64 93 64 259 c 0
 64 420 140 534 259 534 c 0
 318 534 363 502 396 454 c 1
 396 736 l 1xb680
 454 743 l 1
 454 450 l 1
 491 501 539 534 603 534 c 0xae80
259 37 m 0
 319 37 360 72 396 134 c 1
 396 401 l 1
 359 453 322 486 267 486 c 0
 187 486 125 407 126 260 c 0
 126 114 181 37 259 37 c 0
586 37 m 0
 665 37 720 112 720 264 c 0
 720 418 671 486 592 486 c 0
 529 486 489 447 454 397 c 1
 454 138 l 1
 488 75 526 37 586 37 c 0
EndSplineSet
EndChar
StartChar: uni023C
Encoding: 572 572 507
Width: 469
Flags: W
HStem: -11 51<277 311.5 277 315.5> -1 21G<216 216> 484 50<240.5 292.5> 511 20G<328 328>
VStem: 64 62<210 334.5 210 342>
LayerCount: 2
Fore
SplineSet
436 45 m 1xa8
 395 10 345 -11 286 -11 c 0xa8
 261 -11 238 -8 216 -1 c 1
 197 -70 l 1
 165 -62 l 1
 185 12 l 1
 110 50 64 136 64 258 c 0
 64 426 151 534 285 534 c 0x68
 300 534 315 533 328 531 c 1
 345 592 l 1
 376 583 l 1
 359 524 l 1
 386 515 409 501 433 481 c 1
 404 443 l 1
 386 458 367 468 347 475 c 1x98
 230 50 l 1
 248 43 267 40 287 40 c 0
 336 40 371 56 408 84 c 1
 436 45 l 1xa8
126 259 m 0
 126 161 154 98 200 65 c 1
 314 482 l 1
 306 483 297 484 288 484 c 0
 193 484 126 410 126 259 c 0
EndSplineSet
EndChar
StartChar: uni023D
Encoding: 573 573 508
Width: 493
Flags: W
HStem: 0 54<187 465> 338 50<26 127 26 127 187 290> 665 20G<127 187 187 187>
VStem: 127 60<54 54 54 338 388 685>
LayerCount: 2
Fore
SplineSet
187 54 m 1
 473 54 l 1
 465 0 l 1
 127 0 l 1
 127 338 l 1
 26 338 l 1
 26 388 l 1
 127 388 l 1
 127 685 l 1
 187 685 l 1
 187 388 l 1
 290 388 l 1
 290 338 l 1
 187 338 l 1
 187 54 l 1
EndSplineSet
EndChar
StartChar: uni0244
Encoding: 580 580 515
Width: 675
Flags: W
HStem: -11 52<280 395 280 412.5> 513 45<47 113 47 113 173 502 562 628> 513 172<47 173 47 173 113 173 113 502>
VStem: 113 60<214 219 219 513 558 685> 502 60<219 513 558 685>
LayerCount: 2
Fore
SplineSet
628 558 m 1xd8
 628 513 l 1
 562 513 l 1
 562 214 l 2
 562 82 488 -11 337 -11 c 0
 185 -11 113 82 113 214 c 2
 113 513 l 1
 47 513 l 1
 47 558 l 1
 113 558 l 1xd8
 113 685 l 1
 173 685 l 1xb8
 173 558 l 1
 502 558 l 1xd8
 502 685 l 1
 562 685 l 1xb8
 562 558 l 1
 628 558 l 1xd8
502 219 m 2
 502 513 l 1
 173 513 l 1
 173 219 l 2
 173 108 223 41 337 41 c 0
 453 41 502 109 502 219 c 2
EndSplineSet
EndChar
StartChar: uni0249
Encoding: 585 585 520
Width: 301
Flags: W
HStem: -203 21G<39 39> 225 50<19 121 19 121 179 283> 503 20G<121 179 179 179> 669 84<137 163.5>
VStem: 107 87<699.5 722.5> 121 58<17 19 19 225 275 523>
LayerCount: 2
Fore
SplineSet
150 669 m 0xf8
 124 669 107 688 107 711 c 0
 107 734 124 753 150 753 c 0
 177 753 194 734 194 711 c 0
 194 688 177 669 150 669 c 0xf8
283 275 m 1xf4
 283 225 l 1
 179 225 l 1
 179 19 l 2
 179 -121 134 -159 39 -203 c 1
 22 -161 l 1
 91 -127 121 -99 121 17 c 2
 121 225 l 1
 19 225 l 1
 19 275 l 1
 121 275 l 1
 121 523 l 1
 179 523 l 1
 179 275 l 1
 283 275 l 1xf4
EndSplineSet
EndChar
StartChar: uni024D
Encoding: 589 589 524
Width: 386
Flags: W
HStem: 0 21G<119 177 119 119> 259 45<18 119 18 119 177 282> 479 55<285 325> 503 20G<119 169 169 169> 508 20G<373 373>
VStem: 119 58<0 259 0 259 304 320>
LayerCount: 2
Fore
SplineSet
321 534 m 0xe4
 342 534 360 532 373 528 c 1xcc
 362 473 l 1
 348 477 334 479 316 479 c 0xe4
 244 479 205 427 177 320 c 1
 177 304 l 1
 282 304 l 1
 282 259 l 1
 177 259 l 1
 177 0 l 1
 119 0 l 1
 119 259 l 1
 18 259 l 1
 18 304 l 1
 119 304 l 1
 119 523 l 1
 169 523 l 1xd4
 174 406 l 1
 201 492 249 534 321 534 c 0xe4
EndSplineSet
EndChar
StartChar: uni0394
Encoding: 916 916 530
Width: 575
Flags: W
HStem: 0 51<93 480 93 558> 635 50<287 287>
VStem: 16 542<0 0>
LayerCount: 2
Fore
SplineSet
326 685 m 1
 558 0 l 1
 16 0 l 1
 250 685 l 1
 326 685 l 1
287 635 m 1
 93 51 l 1
 480 51 l 1
 287 635 l 1
EndSplineSet
EndChar
StartChar: uni039E
Encoding: 926 926 540
Width: 497
Flags: W
HStem: 0 56<50 447 50 447> 327 55<109 385 109 385> 630 55<50 430 50 437>
VStem: 50 397<0 56 0 56>
LayerCount: 2
Fore
SplineSet
437 685 m 1
 430 630 l 1
 50 630 l 1
 50 685 l 1
 437 685 l 1
385 382 m 1
 385 327 l 1
 109 327 l 1
 109 382 l 1
 385 382 l 1
447 56 m 1
 447 0 l 1
 50 0 l 1
 50 56 l 1
 447 56 l 1
EndSplineSet
EndChar
StartChar: uni03A4
Encoding: 932 932 545
Width: 495
Flags: W
HStem: 0 21G<218 277 218 218> 632 53<15 218 15 485 277 478 277 277>
VStem: 218 59<0 632 0 632>
LayerCount: 2
Fore
SplineSet
485 685 m 1
 478 632 l 1
 277 632 l 1
 277 0 l 1
 218 0 l 1
 218 632 l 1
 15 632 l 1
 15 685 l 1
 485 685 l 1
EndSplineSet
EndChar
StartChar: uni03A6
Encoding: 934 934 547
Width: 791
Flags: W
HStem: 0 118<368 368 368 425 366 368> 70 48<366 368> 567 48<366 368> 567 118<368 368 423 423>
VStem: 40 62<272.5 417 272.5 429> 368 55<118 567> 689 61<269 413.5>
LayerCount: 2
Fore
SplineSet
750 344 m 0x6e
 750 170 635 78 425 70 c 1x5e
 425 0 l 1
 366 0 l 1x9e
 366 70 l 1
 150 78 40 181 40 343 c 0
 40 515 156 607 366 615 c 1x6e
 366 685 l 1
 425 685 l 1x9e
 425 615 l 1
 641 607 750 503 750 344 c 0x6e
102 343 m 0x9e
 102 202 192 123 368 118 c 1
 368 567 l 1
 190 557 102 491 102 343 c 0x9e
423 117 m 1x5e
 600 127 689 194 689 344 c 0
 689 483 599 562 423 567 c 1
 423 117 l 1x5e
EndSplineSet
EndChar
StartChar: uni03A7
Encoding: 935 935 548
Width: 514
Flags: W
HStem: 0 21G<10 75 10 10 436 504 436 436> 665 20G<31 99 99 99 411 476 476 476>
VStem: 10 494<0 0>
LayerCount: 2
Fore
SplineSet
290 371 m 1
 504 0 l 1
 436 0 l 1
 254 329 l 1
 75 0 l 1
 10 0 l 1
 219 368 l 1
 31 685 l 1
 99 685 l 1
 255 408 l 1
 411 685 l 1
 476 685 l 1
 290 371 l 1
EndSplineSet
EndChar
StartChar: uni03B3
Encoding: 947 947 553
Width: 462
Flags: W
HStem: -206 21G<199 199> -198 21G<246 246> 511 20G
VStem: 175.37 59.05
LayerCount: 2
Fore
SplineSet
61 531 m 1x70
 111 465 176 332 231 74 c 1
 387 531 l 1
 446 518 l 1
 260 19 l 2
 231 -57 227 -114 246 -198 c 1x70
 199 -206 l 1xb0
 168 -130 167 -74 199 11 c 1
 126 287 70 432 6 511 c 1
 61 531 l 1x70
EndSplineSet
EndChar
StartChar: uni03BB
Encoding: 955 955 561
Width: 473
Flags: W
HStem: -9 21G<87 87 426 426> 503 20G<207 233 233 233> 724 20G<85 85>
VStem: 31 449<5 13>
LayerCount: 2
Fore
SplineSet
85 744 m 1
 217 717 259 655 291 505 c 0
 360 180 414 100 480 13 c 1
 426 -9 l 1
 360 83 304 168 244 475 c 1
 87 -9 l 1
 31 5 l 1
 207 523 l 1
 233 523 l 1
 210 627 178 678 76 700 c 1
 85 744 l 1
EndSplineSet
EndChar
StartChar: uni03BC
Encoding: 956 956 562
Width: 584
Flags: W
HStem: -203 21G<105 105> -197 21G<162 162> -11 51<234.5 292 234.5 297.5> -2 21G<498 498> 503 20G<105 163 163 163 412 470 470 470>
VStem: 105 58<109.5 150 150 523> 412 58<157 177 177 523>
LayerCount: 2
Fore
SplineSet
498 -2 m 1x5e
 444 -9 l 1
 428 31 423 57 419 102 c 1
 385 42 335 -11 260 -11 c 0
 204 -11 172 12 152 52 c 1
 159 10 162 -25 162 -80 c 2
 162 -197 l 1x6e
 105 -203 l 1
 105 523 l 1
 163 523 l 1
 163 150 l 2
 163 69 208 40 261 40 c 0xae
 323 40 373 80 412 157 c 1
 412 523 l 1
 470 523 l 1
 470 177 l 2
 470 99 482 45 498 -2 c 1x5e
EndSplineSet
EndChar
StartChar: uni03BD
Encoding: 957 957 563
Width: 462
Flags: W
HStem: 0 49<228 228 228 260 191 228> 511 20G
VStem: 6 440<511 518>
LayerCount: 2
Fore
SplineSet
62 531 m 1
 114 463 169 322 228 49 c 1
 389 531 l 1
 446 518 l 1
 260 0 l 1
 191 0 l 1
 123 283 70 432 6 511 c 1
 62 531 l 1
EndSplineSet
EndChar
StartChar: uni03C3
Encoding: 963 963 569
Width: 577
Flags: W
HStem: -11 49<235 335 235 354> 480 50 486 44<342 347 342 342> 503 20G<533 533>
VStem: 64 62<187.5 336 187.5 341> 446 61<188 318.5 178.5 320>
LayerCount: 2
Fore
SplineSet
533 523 m 1x9c
 533 476 l 1
 403 484 l 1xcc
 463 450 507 374 507 263 c 0
 507 94 423 -11 285 -11 c 0
 146 -11 64 93 64 261 c 0
 64 421 143 530 318 530 c 0xac
 388 530 468 527 533 523 c 1x9c
446 263 m 0
 446 377 403 450 347 486 c 1
 342 486 l 2xac
 182 487 126 411 126 261 c 0
 126 114 185 38 285 38 c 0
 385 38 446 113 446 263 c 0
EndSplineSet
EndChar
StartChar: uni03C7
Encoding: 967 967 573
Width: 443
Flags: W
HStem: -203 21G<374 374> -202 7 -202 21G<64 64> 503 20G<412 412> 510 20G<352 352> 512 20G<59 59>
VStem: 3 429
LayerCount: 2
Fore
SplineSet
252 184 m 1x26
 432 -193 l 1
 374 -203 l 1x86
 221 134 l 1
 64 -202 l 1
 6 -195 l 1
 191 185 l 1
 108 373 64 443 3 511 c 1
 59 532 l 1x46
 114 469 155 401 222 230 c 1
 352 530 l 1x2a
 412 523 l 1x32
 252 184 l 1x26
EndSplineSet
EndChar
StartChar: uni03C9
Encoding: 969 969 575
Width: 774
Flags: W
HStem: -11 49<220.5 282.5 220.5 285 488.5 546> 503 20G<134 192 192 192 582 641 641 641>
VStem: 76 59<162 287 162 300> 358 57<179 353 353 353> 639 59<155 287>
LayerCount: 2
Fore
SplineSet
641 523 m 1
 666 460 698 362 698 237 c 0
 698 49 612 -11 522 -11 c 0
 450 -11 398 26 387 109 c 1
 371 26 322 -11 248 -11 c 0
 150 -11 76 60 76 238 c 0
 76 362 106 453 134 523 c 1
 192 523 l 1
 155 426 135 338 135 236 c 0
 135 88 187 38 254 38 c 0
 311 38 358 68 358 179 c 2
 358 353 l 1
 415 361 l 1
 415 179 l 2
 415 72 461 38 516 38 c 0
 576 38 639 74 639 236 c 0
 639 338 617 426 582 523 c 1
 641 523 l 1
EndSplineSet
EndChar
StartChar: uni03D5
Encoding: 981 981 579
Width: 624
Flags: W
HStem: -205 21G<283 283> -197 21G<341 341> 716 20G<283 283> 723 20G<341 341>
VStem: 51 62<197 326 197 339.5> 285 54<53 471> 510 62<196.5 327>
LayerCount: 2
Fore
SplineSet
572 263 m 0x5e
 572 105 487 12 341 5 c 1
 341 -197 l 1x5e
 283 -205 l 1
 283 5 l 1
 133 13 51 108 51 262 c 0
 51 417 137 512 283 518 c 1
 283 736 l 1xae
 341 743 l 1
 341 518 l 1
 490 511 572 415 572 263 c 0x5e
113 262 m 0
 113 132 173 58 285 53 c 1
 285 471 l 1
 172 464 113 390 113 262 c 0
339 52 m 1
 451 59 510 130 510 263 c 0
 510 391 450 464 339 471 c 1
 339 52 l 1
EndSplineSet
EndChar
StartChar: uni03D7
Encoding: 983 983 581
Width: 593
Flags: W
HStem: -205 48<385.5 422 385.5 442> -9 21G<174 174> 511 20G<82 82> 512 20G<420 420>
VStem: 110 59<347.5 399 399 426> 424 59<96.5 123 123 175.5> 472 58<-74 -71 -71 14 14 14>
LayerCount: 2
Fore
SplineSet
483 123 m 2xdc
 483 69 497 49 530 36 c 1
 530 -71 l 2
 530 -161 480 -205 404 -205 c 0
 357 -205 325 -188 303 -171 c 1
 327 -134 l 1
 348 -147 369 -157 402 -157 c 0
 442 -157 472 -136 472 -74 c 2
 472 14 l 1xda
 437 35 424 68 424 125 c 0
 424 226 433 413 436 458 c 1
 174 -9 l 1
 110 10 l 1
 110 399 l 2
 110 453 97 472 63 486 c 1
 82 531 l 1xec
 146 512 169 474 169 398 c 0
 169 297 160 110 158 65 c 1
 420 532 l 1
 483 513 l 1
 483 123 l 2xdc
EndSplineSet
EndChar
StartChar: uni03F1
Encoding: 1009 1009 583
Width: 569
Flags: W
HStem: -207 21G<384 384> 23 49<269.5 337 261.5 364> 486 48<245.5 342.5>
VStem: 94 58<14 102 161 276> 438 62<217 348.5>
LayerCount: 2
Fore
SplineSet
294 -107 m 0
 388 -121 422 -145 438 -187 c 1
 384 -207 l 1
 367 -176 348 -166 260 -152 c 0
 144 -133 94 -92 94 14 c 2
 94 285 l 2
 94 438 160 534 295 534 c 0
 429 534 500 433 500 285 c 0
 500 132 426 23 302 23 c 0
 237 23 186 53 152 102 c 1
 152 14 l 2
 152 -67 185 -90 294 -107 c 0
296 486 m 0
 195 486 152 408 152 276 c 2
 152 161 l 1
 183 105 232 72 291 72 c 0
 383 72 438 149 438 285 c 0
 438 412 389 486 296 486 c 0
EndSplineSet
EndChar
StartChar: uni03F5
Encoding: 1013 1013 586
Width: 477
Flags: W
HStem: -11 49<241 310.5 241 316> 246 46<125 368 125 368 124 368> 486 48<244.5 312>
VStem: 64 60<246 246 246 345>
LayerCount: 2
Fore
SplineSet
411 83 m 1
 439 43 l 1
 395 9 345 -11 287 -11 c 0
 152 -11 64 88 64 261 c 0
 64 429 154 534 287 534 c 0
 344 534 390 519 438 481 c 1
 408 444 l 1
 368 473 334 486 290 486 c 0
 199 486 132 420 125 292 c 1
 368 292 l 1
 368 246 l 1
 124 246 l 1
 128 105 195 38 287 38 c 0
 334 38 369 53 411 83 c 1
EndSplineSet
EndChar
StartChar: uni2033
Encoding: 8243 8243 589
Width: 430
Flags: W
HStem: 434 251
VStem: 71 288
LayerCount: 2
Fore
SplineSet
71 434 m 1
 157 685 l 1
 219 685 l 1
 115 434 l 1
 71 434 l 1
211 434 m 1
 297 685 l 1
 359 685 l 1
 255 434 l 1
 211 434 l 1
EndSplineSet
EndChar
StartChar: uni2034
Encoding: 8244 8244 590
Width: 570
Flags: W
HStem: 434 251
LayerCount: 2
Fore
SplineSet
71 434 m 1
 157 685 l 1
 219 685 l 1
 115 434 l 1
 71 434 l 1
211 434 m 1
 297 685 l 1
 359 685 l 1
 255 434 l 1
 211 434 l 1
351 434 m 1
 437 685 l 1
 499 685 l 1
 395 434 l 1
 351 434 l 1
EndSplineSet
EndChar
StartChar: uni2135
Encoding: 8501 8501 598
Width: 556
Flags: W
HStem: 0 21G<52 110 52 52 447 515 447 447> 542 20G<41 110 110 110 432 490 490 490>
VStem: 52 58<0 93 93 96 0 153.5> 432 58<469 472 472 562>
LayerCount: 2
Fore
SplineSet
515 0 m 1
 447 0 l 1
 196 348 l 1
 116 288 110 206 110 96 c 2
 110 0 l 1
 52 0 l 1
 52 93 l 2
 52 214 63 311 174 378 c 1
 41 562 l 1
 110 562 l 1
 357 220 l 1
 429 280 432 362 432 469 c 2
 432 562 l 1
 490 562 l 1
 490 472 l 2
 490 354 483 257 378 189 c 1
 515 0 l 1
EndSplineSet
EndChar
StartChar: uniFB00
Encoding: 64256 64256 945
Width: 601
Flags: W
HStem: 0 21G<107 165 107 107 392 450 392 392> 476 47<21 107 21 107 165 392 450 580> 685 48<232 290> 695 48<511.5 556.5>
VStem: 107 58<0 476 0 476 523 597> 392 58<0 476 0 476 523 607>
LayerCount: 2
Fore
SplineSet
540 695 m 0xdc
 481 695 450 669 450 607 c 2xdc
 450 523 l 1
 587 523 l 1
 580 476 l 1
 450 476 l 1
 450 0 l 1
 392 0 l 1
 392 476 l 1
 165 476 l 1
 165 0 l 1
 107 0 l 1
 107 476 l 1
 21 476 l 1
 21 523 l 1
 107 523 l 1
 107 599 l 2
 107 681 161 733 263 733 c 0
 318 733 360 724 422 698 c 1xec
 447 727 486 743 537 743 c 0
 582 743 620 733 658 715 c 1
 639 672 l 1
 605 687 573 695 540 695 c 0xdc
392 523 m 1
 392 609 l 2
 392 627 395 643 400 658 c 1
 349 678 313 685 267 685 c 0
 197 685 165 659 165 597 c 2xec
 165 523 l 1
 392 523 l 1
EndSplineSet
EndChar
StartChar: uniFB01
Encoding: 64257 64257 946
Width: 562
Flags: W
HStem: 0 21G<107 165 107 107 399 457 399 399> 476 47<21 107 21 107 165 399> 694 49<229 286>
VStem: 107 58<0 476 0 476 523 605> 399 58<0 476 476 476>
LayerCount: 2
Fore
SplineSet
260 743 m 0
 319 743 366 728 407 706 c 1
 386 664 l 1
 350 681 310 694 262 694 c 0
 196 694 165 671 165 605 c 2
 165 523 l 1
 457 523 l 1
 457 0 l 1
 399 0 l 1
 399 476 l 1
 165 476 l 1
 165 0 l 1
 107 0 l 1
 107 476 l 1
 21 476 l 1
 21 523 l 1
 107 523 l 1
 107 608 l 2
 107 693 160 743 260 743 c 0
EndSplineSet
EndChar
StartChar: uniFB02
Encoding: 64258 64258 947
Width: 591
Flags: W
HStem: -11 50<485.5 501> 0 21G<107 165 107 107> 476 47<21 107 21 107 165 296> 695 48<232 289.5 212 291.5>
VStem: 107 58<0 476 0 476 523 607> 400 58<90 673 673 673 720 720>
LayerCount: 2
Fore
SplineSet
536 46 m 1xbc
 552 3 l 1
 534 -5 512 -11 490 -11 c 0xbc
 434 -11 400 21 400 90 c 2
 400 673 l 1
 352 688 316 695 267 695 c 0
 197 695 165 669 165 607 c 2
 165 523 l 1
 303 523 l 1
 296 476 l 1
 165 476 l 1
 165 0 l 1
 107 0 l 1x7c
 107 476 l 1
 21 476 l 1
 21 523 l 1
 107 523 l 1
 107 609 l 2
 107 691 161 743 263 743 c 0
 316 743 353 735 400 720 c 1
 458 728 l 1
 458 90 l 2
 458 56 470 39 501 39 c 0
 513 39 525 41 536 46 c 1xbc
EndSplineSet
EndChar
StartChar: uniFB03
Encoding: 64259 64259 948
Width: 846
Flags: W
HStem: 0 21G<107 165 107 107 392 450 392 392 683 741 683 683> 476 47<21 107 21 107 165 392 450 683> 685 48<232 290> 694 49<516.5 570.5>
VStem: 107 58<0 476 0 476 523 597> 392 58<0 476 0 476 523 605> 683 58<0 476 476 476>
LayerCount: 2
Fore
SplineSet
450 523 m 1xde
 741 523 l 1
 741 0 l 1
 683 0 l 1
 683 476 l 1
 450 476 l 1
 450 0 l 1
 392 0 l 1
 392 476 l 1
 165 476 l 1
 165 0 l 1
 107 0 l 1
 107 476 l 1
 21 476 l 1
 21 523 l 1
 107 523 l 1
 107 599 l 2
 107 681 161 733 263 733 c 0
 318 733 360 724 421 698 c 1xee
 447 727 488 743 545 743 c 0
 603 743 650 728 692 706 c 1
 671 664 l 1
 634 681 595 694 546 694 c 0
 481 694 450 671 450 605 c 2
 450 523 l 1xde
392 523 m 1
 392 608 l 2
 392 626 394 643 399 658 c 1
 349 678 313 685 267 685 c 0
 197 685 165 659 165 597 c 2
 165 523 l 1
 392 523 l 1
EndSplineSet
EndChar
StartChar: uniFB04
Encoding: 64260 64260 949
Width: 875
Flags: W
HStem: -11 50<769.5 786> 0 21G<107 165 107 107 392 450 392 392> 476 47<21 107 21 107 165 392 450 580> 685 48<232 290> 695 48<518.5 573.5 518.5 576>
VStem: 107 58<0 476 0 476 523 597> 392 58<0 476 0 476 523 607> 684 58<90 673 673 673 720 720>
LayerCount: 2
Fore
SplineSet
821 46 m 1xaf
 837 3 l 1
 818 -5 797 -11 775 -11 c 0
 718 -11 684 21 684 90 c 2
 684 673 l 1
 637 688 601 695 551 695 c 0
 481 695 450 669 450 607 c 2xaf
 450 523 l 1
 587 523 l 1
 580 476 l 1
 450 476 l 1
 450 0 l 1
 392 0 l 1
 392 476 l 1
 165 476 l 1
 165 0 l 1
 107 0 l 1
 107 476 l 1
 21 476 l 1
 21 523 l 1
 107 523 l 1
 107 599 l 2
 107 681 161 733 263 733 c 0
 318 733 360 724 422 698 c 1x77
 448 727 490 743 547 743 c 0
 600 743 637 735 684 720 c 1
 742 728 l 1
 742 90 l 2
 742 56 754 39 785 39 c 0
 798 39 810 41 821 46 c 1xaf
392 523 m 1
 392 609 l 2
 392 627 395 643 399 658 c 1
 349 678 313 685 267 685 c 0
 197 685 165 659 165 597 c 2xb7
 165 523 l 1
 392 523 l 1
EndSplineSet
EndChar
StartChar: u1D406
Encoding: 119814 119814 609
Width: 631
Flags: W
HStem: -12 78<283.5 367 283.5 388> 305 77<353 475 353 353> 623 78<304.5 385>
VStem: 55 101<246 446.5 246 461> 475 94<97 305 305 305>
LayerCount: 2
Fore
SplineSet
354 701 m 0
 445 701 502 674 561 625 c 1
 505 567 l 1
 457 606 416 623 354 623 c 0
 255 623 156 548 156 345 c 0
 156 147 223 66 344 66 c 0
 390 66 436 75 475 97 c 1
 475 305 l 1
 353 305 l 1
 342 382 l 1
 569 382 l 1
 569 49 l 1
 504 12 432 -12 344 -12 c 0
 166 -12 55 107 55 345 c 0
 55 577 195 701 354 701 c 0
EndSplineSet
EndChar
StartChar: u1D40E
Encoding: 119822 119822 617
Width: 692
Flags: W
HStem: -12 78<290 404 290 432.5> 623 78<288.5 405>
VStem: 55 101<243.5 442.5 243.5 456.5> 536 101<244 443>
LayerCount: 2
Fore
SplineSet
346 701 m 0
 519 701 637 576 637 344 c 0
 637 116 519 -12 346 -12 c 0
 174 -12 55 112 55 343 c 0
 55 570 174 701 346 701 c 0
346 623 m 0
 231 623 156 542 156 343 c 0
 156 144 234 66 346 66 c 0
 462 66 536 144 536 344 c 0
 536 542 464 623 346 623 c 0
EndSplineSet
EndChar
StartChar: u1D41E
Encoding: 119838 119838 633
Width: 544
Flags: W
HStem: -12 75<259 323 259 326.5> 232 68<155 402 155 491 155 402> 466 73<243 319.5>
VStem: 57 98<232 232 232 300 232 340> 402 91<300 306 306 357.5>
LayerCount: 2
Fore
SplineSet
493 279 m 0
 493 261 492 244 491 232 c 1
 155 232 l 1
 164 110 221 63 297 63 c 0
 349 63 388 77 434 109 c 1
 474 54 l 1
 422 13 363 -12 290 -12 c 0
 143 -12 57 91 57 258 c 0
 57 422 140 539 276 539 c 0
 418 539 493 440 493 279 c 0
402 300 m 1
 402 306 l 2
 402 409 361 466 278 466 c 0
 208 466 162 417 155 300 c 1
 402 300 l 1
EndSplineSet
EndChar
StartChar: u1D436
Encoding: 119862 119862 657
Width: 547
Flags: W
HStem: -11 53<258 345 258 346.5> 645 51<301.5 428>
VStem: 71 62<185 340 185 354.5>
LayerCount: 2
Fore
SplineSet
399 696 m 0
 476 696 525 672 569 632 c 1
 534 596 l 1
 492 630 455 645 401 645 c 0
 202 645 133 420 133 260 c 0
 133 110 207 42 309 42 c 0
 381 42 425 68 469 100 c 1
 498 58 l 1
 450 20 388 -11 305 -11 c 0
 167 -11 71 84 71 263 c 0
 71 446 161 696 399 696 c 0
EndSplineSet
EndChar
StartChar: u1D43B
Encoding: 119867 119867 662
Width: 668
Flags: W
HStem: 0 21G<73 133 73 73 460 460 460 520> 335 51<188 507 180 515> 665 20G<170 230 230 230 557 617 617 617>
VStem: 73 544
LayerCount: 2
Fore
SplineSet
133 0 m 1
 73 0 l 1
 170 685 l 1
 230 685 l 1
 188 386 l 1
 515 386 l 1
 557 685 l 1
 617 685 l 1
 520 0 l 1
 460 0 l 1
 507 335 l 1
 180 335 l 1
 133 0 l 1
EndSplineSet
EndChar
StartChar: u1D43F
Encoding: 119871 119871 666
Width: 472
Flags: W
HStem: 0 54<141 410> 665 20G<170 230 230 230>
VStem: 73 353<0 54>
LayerCount: 2
Fore
SplineSet
230 685 m 1
 141 54 l 1
 426 54 l 1
 410 0 l 1
 73 0 l 1
 170 685 l 1
 230 685 l 1
EndSplineSet
EndChar
StartChar: u1D443
Encoding: 119875 119875 670
Width: 567
Flags: W
HStem: 0 21G<73 133 73 73> 267 50<178 271 171 274> 636 49<223 324 223 223>
VStem: 493 64<463 557.5>
LayerCount: 2
Fore
SplineSet
328 685 m 2
 472 685 557 631 557 512 c 0
 557 389 489 267 271 267 c 2
 171 267 l 1
 133 0 l 1
 73 0 l 1
 170 685 l 1
 328 685 l 2
274 317 m 2
 449 317 493 414 493 512 c 0
 493 603 431 636 324 636 c 2
 223 636 l 1
 178 317 l 1
 274 317 l 2
EndSplineSet
EndChar
StartChar: u1D44D
Encoding: 119885 119885 680
Width: 513
Flags: W
HStem: 0 53<76 415> 633 52<131 450 124 526>
VStem: -2 528
LayerCount: 2
Fore
SplineSet
-2 0 m 1
 5 50 l 1
 450 633 l 1
 124 633 l 1
 131 685 l 1
 526 685 l 1
 519 635 l 1
 76 53 l 1
 430 53 l 1
 415 0 l 1
 -2 0 l 1
EndSplineSet
EndChar
StartChar: u1D44E
Encoding: 119886 119886 681
Width: 560
Flags: W
HStem: -11 49<196.5 256> 487 47<252.5 350.5>
VStem: 58 62<141 252.5 141 262.5> 384 53.52
LayerCount: 2
Fore
SplineSet
327 534 m 0
 396 534 445 517 495 491 c 1
 440 114 l 2
 434 69 437 45 471 30 c 1
 454 -11 l 1
 411 -1 383 22 384 84 c 1
 345 27 289 -11 223 -11 c 0
 119 -11 58 67 58 192 c 0
 58 333 130 534 327 534 c 0
329 487 m 0
 176 487 120 313 120 192 c 0
 120 90 161 38 232 38 c 0
 297 38 345 80 388 148 c 1
 433 463 l 1
 403 478 372 487 329 487 c 0
EndSplineSet
EndChar
StartChar: u1D458
Encoding: 119896 119896 690
Width: 521
Flags: W
HStem: 0 21G<67 125 67 67 378 442 378 378> 487 47<340.5 388> 724 20G<229 229>
VStem: 434 62<379.5 438>
LayerCount: 2
Fore
SplineSet
229 744 m 1
 181 396 l 1
 237 494 305 534 376 534 c 0
 447 534 496 491 496 422 c 0
 496 337 436 272 323 236 c 1
 442 0 l 1
 378 0 l 1
 253 254 l 1
 375 288 434 340 434 417 c 0
 434 459 413 487 363 487 c 0
 290 487 221 420 168 305 c 1
 125 0 l 1
 67 0 l 1
 171 736 l 1
 229 744 l 1
EndSplineSet
EndChar
StartChar: u1D460
Encoding: 119904 119904 698
Width: 455
Flags: W
HStem: -11 49<159.5 237.5 159.5 253.5> 485 49<220 282.5>
VStem: 74 60<374.5 424.5 374.5 431> 334 61<113.5 172.5>
LayerCount: 2
Fore
SplineSet
258 534 m 0
 324 534 374 513 418 475 c 1
 387 440 l 1
 348 470 308 485 257 485 c 0
 183 485 134 452 134 397 c 0
 134 352 162 327 248 301 c 0
 351 269 395 226 395 150 c 0
 395 54 316 -11 191 -11 c 0
 104 -11 47 21 6 60 c 1
 40 94 l 1
 81 60 127 38 192 38 c 0
 283 38 334 82 334 145 c 0
 334 200 307 226 214 255 c 0
 109 288 74 329 74 394 c 0
 74 468 142 534 258 534 c 0
EndSplineSet
EndChar
StartChar: u1D462
Encoding: 119906 119906 700
Width: 573
Flags: W
HStem: -11 48<186.5 246> 0 21G<384 432 384 384> 503 20G<135 193 193 193 448 506 506 506>
VStem: 80.23 58.16
LayerCount: 2
Fore
SplineSet
204 -11 m 0xb0
 115 -11 68 49 83 151 c 2
 135 523 l 1
 193 523 l 1
 141 153 l 2
 129 71 158 37 215 37 c 0xb0
 294 37 357 112 403 202 c 1
 448 523 l 1
 506 523 l 1
 432 0 l 1
 384 0 l 1x70
 398 133 l 1
 352 49 288 -11 204 -11 c 0xb0
EndSplineSet
EndChar
StartChar: u1D464
Encoding: 119908 119908 702
Width: 696
Flags: W
HStem: 0 45<166 166 166 197> 469 54<380 380>
VStem: 63 644<523 523>
LayerCount: 2
Fore
SplineSet
707 523 m 1
 507 0 l 1
 429 0 l 1
 380 469 l 1
 197 0 l 1
 120 0 l 1
 63 523 l 1
 120 523 l 1
 166 45 l 1
 353 523 l 1
 421 523 l 1
 472 45 l 1
 650 523 l 1
 707 523 l 1
EndSplineSet
EndChar
StartChar: u1D471
Encoding: 119921 119921 715
Width: 300
Flags: W
HStem: 669 20G<172 266 266 266>
VStem: -45 311
LayerCount: 2
Fore
SplineSet
266 689 m 1
 182 93 l 2
 162 -51 88 -103 -26 -138 c 1
 -45 -67 l 1
 50 -31 77 11 89 103 c 2
 172 689 l 1
 266 689 l 1
EndSplineSet
EndChar
StartChar: u1D47E
Encoding: 119934 119934 728
Width: 820
Flags: W
HStem: 0 83<200 200 200 246 128 200> 577 112<454 454> 669 20G<86 176 176 176 417 519 519 519 768 855 855 855>
VStem: 86 769<689 689>
LayerCount: 2
Fore
SplineSet
855 689 m 1xb0
 619 0 l 1
 498 0 l 1
 454 577 l 1xd0
 246 0 l 1
 128 0 l 1
 86 689 l 1
 176 689 l 1
 200 83 l 1
 417 689 l 1
 519 689 l 1
 568 83 l 1
 768 689 l 1
 855 689 l 1xb0
EndSplineSet
EndChar
StartChar: u1D48D
Encoding: 119949 119949 743
Width: 283
Flags: W
HStem: -12 76<166 170.5> 730 20G<244 244>
VStem: 61.76 91.24
LayerCount: 2
Fore
SplineSet
244 750 m 1
 153 103 l 2
 150 75 155 64 177 64 c 0
 189 64 201 67 213 71 c 1
 232 5 l 1
 205 -7 182 -12 159 -12 c 0
 89 -12 52 31 64 118 c 2
 152 739 l 1
 244 750 l 1
EndSplineSet
EndChar
StartChar: u1D49B
Encoding: 119963 119963 757
Width: 420
Flags: W
HStem: 0 77<104 350> 449 78<79 308 68 431>
VStem: -18 449
LayerCount: 2
Fore
SplineSet
431 527 m 1
 422 457 l 1
 104 77 l 1
 371 77 l 1
 350 0 l 1
 -18 0 l 1
 -9 69 l 1
 308 449 l 1
 68 449 l 1
 79 527 l 1
 431 527 l 1
EndSplineSet
EndChar
StartChar: u1D6B2
Encoding: 120498 120498 770
Width: 573
Flags: W
HStem: 0 21G<6 102 6 6 467 567 467 467> 610 79<285 285> 669 20G<227 347 347 347>
VStem: 6 561<0 0>
LayerCount: 2
Fore
SplineSet
347 689 m 1xb0
 567 0 l 1
 467 0 l 1
 285 610 l 1xd0
 102 0 l 1
 6 0 l 1
 227 689 l 1
 347 689 l 1xb0
EndSplineSet
EndChar
StartChar: u1D6C9
Encoding: 120521 120521 792
Width: 574
Flags: W
HStem: -12 75<244 332 244 361.5> 337 70<153 421 153 153> 675 75<244 331.5>
VStem: 57 95<407 407 407 488> 421 96<337 337>
LayerCount: 2
Fore
SplineSet
288 750 m 0
 438 750 517 610 517 372 c 0
 517 131 436 -12 287 -12 c 0
 137 -12 57 126 57 371 c 0
 57 605 138 750 288 750 c 0
288 675 m 0
 200 675 157 598 152 407 c 1
 422 407 l 1
 417 598 375 675 288 675 c 0
287 63 m 0
 377 63 416 137 421 337 c 1
 153 337 l 1
 158 135 201 63 287 63 c 0
EndSplineSet
EndChar
StartChar: u1D6CB
Encoding: 120523 120523 794
Width: 525
Flags: W
HStem: -12 21G<496 496> 0 21G<101 193 101 101> 519 20G<159 159 428 428>
VStem: 101 92<0 339 0 357 0 395.5>
LayerCount: 2
Fore
SplineSet
159 539 m 1x70
 176 503 193 451 193 339 c 2
 193 0 l 1
 101 0 l 1
 101 357 l 2
 101 434 89 483 75 527 c 1
 159 539 l 1x70
496 499 m 1
 302 285 l 1
 448 113 l 2
 474 82 496 67 525 56 c 1
 496 -12 l 1
 445 -6 420 16 379 65 c 2xb0
 197 282 l 1
 428 539 l 1
 496 499 l 1
EndSplineSet
EndChar
StartChar: u1D6D2
Encoding: 120530 120530 801
Width: 580
Flags: W
HStem: -213 21G<81 81> -202 21G<173 173> -12 75<283 331 265 379> 467 72<251 337.5>
VStem: 81 92<-202 54 -202 133 133 256> 419 99<198.5 334.5>
LayerCount: 2
Fore
SplineSet
296 539 m 0x7c
 442 539 518 440 518 264 c 0
 518 115 447 -12 311 -12 c 0
 255 -12 207 6 173 54 c 1
 173 -202 l 1x7c
 81 -213 l 1xbc
 81 271 l 2
 81 448 155 539 296 539 c 0x7c
289 63 m 0
 373 63 419 133 419 264 c 0
 419 405 377 467 298 467 c 0
 204 467 173 392 173 256 c 2
 173 133 l 1
 199 86 241 63 289 63 c 0
EndSplineSet
EndChar
StartChar: u1D6D5
Encoding: 120533 120533 804
Width: 459
Flags: W
HStem: -12 21G<288 288> 452 75<110 179 110 110 271 455 271 271>
VStem: 179 92<129 141 141 452>
LayerCount: 2
Fore
SplineSet
455 452 m 1
 271 452 l 1
 271 141 l 2
 271 89 284 72 317 57 c 1
 288 -12 l 1
 206 8 179 45 179 129 c 2
 179 452 l 1
 110 452 l 2
 57 451 44 449 11 440 c 1
 -5 512 l 1
 31 525 53 527 102 527 c 2
 455 527 l 1
 455 452 l 1
EndSplineSet
EndChar
StartChar: u1D6DD
Encoding: 120541 120541 812
Width: 538
Flags: W
HStem: -12 74 404 72.5 676 74<205 281>
VStem: 40 92<541.5 605.5 541.5 623.5> 60 92<163 171 171 349> 386 101<402 404 266.5 404>
LayerCount: 2
Fore
SplineSet
523 478 m 1xec
 522 404 l 1
 487 404 l 1
 487 402 l 2
 487 131 412 -12 239 -12 c 0
 141 -12 60 48 60 163 c 2
 60 349 l 1
 152 349 l 1
 152 171 l 2xec
 152 97 183 61 243 62 c 0
 340 63 386 152 386 402 c 2
 386 404 l 1
 267 404 l 2
 107 404 40 477 40 575 c 0xf4
 40 672 121 750 236 750 c 0
 389 750 466 643 483 478 c 1
 523 478 l 1xec
267 476 m 2
 383 477 l 1
 371 612 324 676 238 676 c 0
 172 676 132 634 132 577 c 0xf4
 132 506 184 475 267 476 c 2
EndSplineSet
EndChar
StartChar: u1D6E0
Encoding: 120544 120544 815
Width: 580
Flags: W
HStem: -216 21G<373 373> 22 74<283 331 265 379> 467 72<251 337.5>
VStem: 81 92<13 91 170 256> 419 99<229.5 347>
LayerCount: 2
Fore
SplineSet
311 -100 m 0
 405 -114 443 -140 458 -184 c 1
 373 -216 l 1
 359 -188 345 -182 252 -167 c 0
 137 -149 81 -106 81 13 c 2
 81 271 l 2
 81 448 155 539 296 539 c 0
 442 539 518 440 518 289 c 0
 518 152 447 22 311 22 c 0
 255 22 207 43 173 91 c 1
 173 13 l 2
 173 -67 199 -83 311 -100 c 0
298 467 m 0
 204 467 173 392 173 256 c 2
 173 170 l 1
 199 122 241 96 289 96 c 0
 373 96 419 170 419 289 c 0
 419 405 377 467 298 467 c 0
EndSplineSet
EndChar
StartChar: u1D6E4
Encoding: 120548 120548 819
Width: 506
Flags: W
HStem: 0 21G<74 134 74 74> 631 54<223 539 223 223>
VStem: 74 482
LayerCount: 2
Fore
SplineSet
556 685 m 1
 539 631 l 1
 223 631 l 1
 134 0 l 1
 74 0 l 1
 170 685 l 1
 556 685 l 1
EndSplineSet
EndChar
StartChar: u1D6EA
Encoding: 120554 120554 825
Width: 281
Flags: W
HStem: 0 21G<73 133 73 73> 665 20G<170 230 230 230>
VStem: 73 157
LayerCount: 2
Fore
SplineSet
230 685 m 1
 133 0 l 1
 73 0 l 1
 170 685 l 1
 230 685 l 1
EndSplineSet
EndChar
StartChar: u1D6EB
Encoding: 120555 120555 826
Width: 545
Flags: W
HStem: 0 21G<73 73 73 134 437 508 437 437> 665 20G<170 230 230 230 516 588 588 588>
VStem: 73 515
LayerCount: 2
Fore
SplineSet
73 0 m 1
 170 685 l 1
 230 685 l 1
 134 0 l 1
 73 0 l 1
437 0 m 1
 189 367 l 1
 516 685 l 1
 588 685 l 1
 258 365 l 1
 508 0 l 1
 437 0 l 1
EndSplineSet
EndChar
StartChar: u1D6F6
Encoding: 120566 120566 837
Width: 520
Flags: W
HStem: 0 21G<193 254 193 193> 665 20G<73 136 136 136 500 567 567 567>
VStem: 73 494<685 685>
LayerCount: 2
Fore
SplineSet
567 685 m 1
 292 268 l 1
 254 0 l 1
 193 0 l 1
 231 267 l 1
 73 685 l 1
 136 685 l 1
 267 323 l 1
 500 685 l 1
 567 685 l 1
EndSplineSet
EndChar
StartChar: u1D6F8
Encoding: 120568 120568 839
Width: 512
Flags: W
HStem: 0 21G<-27 40 -27 -27 399 464 399 399> 665 20G<90 156 156 156 467 533 533 533>
VStem: -27 560
LayerCount: 2
Fore
SplineSet
533 685 m 1
 304 370 l 1
 464 0 l 1
 399 0 l 1
 265 327 l 1
 40 0 l 1
 -27 0 l 1
 233 369 l 1
 90 685 l 1
 156 685 l 1
 271 409 l 1
 467 685 l 1
 533 685 l 1
EndSplineSet
EndChar
StartChar: u1D6F9
Encoding: 120569 120569 840
Width: 668
Flags: W
HStem: 0 21G<267 327 267 267> 201 49<296 303> 665 20G<100 159 159 159 364 422 422 422 628 687 687 687>
VStem: 60.76 59.79
LayerCount: 2
Fore
SplineSet
628 685 m 1
 687 685 l 1
 651 425 l 2
 631 282 527 208 356 200 c 1
 327 0 l 1
 267 0 l 1
 296 201 l 1
 125 210 45 289 63 428 c 2
 100 685 l 1
 159 685 l 1
 123 429 l 2
 108 313 160 256 303 250 c 1
 364 685 l 1
 422 685 l 1
 361 251 l 1
 502 258 576 318 592 433 c 2
 628 685 l 1
EndSplineSet
EndChar
StartChar: u1D700
Encoding: 120576 120576 846
Width: 465
Flags: W
HStem: -11 49<184 254 184 256> 250 47<195.5 327 266 313> 486 48<240.5 317>
VStem: 40 62<103 162 103 168.5> 98 59<357 407.5 357 418>
LayerCount: 2
Fore
SplineSet
218 -11 m 0xf0
 111 -11 40 45 40 133 c 0xf0
 40 204 87 268 191 278 c 1
 137 293 98 322 98 384 c 0
 98 452 153 534 289 534 c 0
 360 534 408 512 445 483 c 1
 412 448 l 1
 379 471 345 486 289 486 c 0
 192 486 157 432 157 383 c 0xe8
 157 331 194 297 266 297 c 2
 327 297 l 1
 313 250 l 1
 258 250 l 2
 133 250 102 191 102 133 c 0
 102 73 146 38 222 38 c 0
 286 38 326 57 377 91 c 1
 404 52 l 1
 354 14 294 -11 218 -11 c 0xf0
EndSplineSet
EndChar
StartChar: u1D70F
Encoding: 120591 120591 861
Width: 434
Flags: W
HStem: -8 21G<232 232> 474 49<104 463 138 209 267 455 267 267>
VStem: 157.87 60.13
LayerCount: 2
Fore
SplineSet
267 474 m 1
 218 122 l 2
 211 68 221 51 254 36 c 1
 232 -8 l 1
 168 12 151 48 160 122 c 2
 209 474 l 1
 129 474 l 2
 79 474 58 472 30 463 c 1
 22 510 l 1
 48 520 82 523 138 523 c 2
 463 523 l 1
 455 474 l 1
 267 474 l 1
EndSplineSet
EndChar
StartChar: u1D710
Encoding: 120592 120592 862
Width: 559
Flags: W
HStem: -11 49 503 20G<135 193 193 193 427 484 484 484>
VStem: 82.53 58.18 431 58<337 432 311 437.5>
LayerCount: 2
Fore
SplineSet
484 523 m 1
 487 488 489 451 489 413 c 0
 489 209 438 -11 231 -11 c 0
 123 -11 70 63 85 163 c 2
 135 523 l 1
 193 523 l 1
 143 162 l 2
 131 80 167 39 233 38 c 0
 400 37 431 254 431 420 c 0
 431 455 430 491 427 523 c 1
 484 523 l 1
EndSplineSet
EndChar
StartChar: u1D713
Encoding: 120595 120595 865
Width: 752
Flags: W
HStem: -207 21G<285 285> -10 47<312 319> 503 20G<136 194 194 194 387 444 444 444 620 676 676 676>
VStem: 88.56 58.28 623 58<328 443.5 304 445.5>
LayerCount: 2
Fore
SplineSet
681 427 m 0
 681 181 639 3 369 -10 c 1
 342 -199 l 1
 285 -207 l 1
 312 -10 l 1
 145 -5 71 74 92 215 c 2
 136 523 l 1
 194 523 l 1
 150 214 l 2
 133 98 184 42 319 37 c 1
 387 523 l 1
 444 523 l 1
 376 38 l 1
 600 52 623 228 623 428 c 0
 623 463 622 494 620 523 c 1
 676 523 l 1
 679 494 681 460 681 427 c 0
EndSplineSet
EndChar
StartChar: u1D716
Encoding: 120598 120598 868
Width: 472
Flags: W
HStem: -11 51<211 276 211 277> 246 47<130 363 123 370> 485 49<263 342.5>
VStem: 60 60<143 205 143 268>
LayerCount: 2
Fore
SplineSet
319 485 m 0
 207 485 152 390 130 293 c 1
 370 293 l 1
 363 246 l 1
 123 246 l 1
 121 229 120 213 120 197 c 0
 120 89 171 40 251 40 c 0
 301 40 340 57 380 84 c 1
 405 43 l 1
 359 8 306 -11 248 -11 c 0
 132 -11 60 65 60 200 c 0
 60 336 129 534 320 534 c 0
 376 534 423 518 461 480 c 1
 428 443 l 1
 399 470 366 485 319 485 c 0
EndSplineSet
EndChar
StartChar: u1D72B
Encoding: 120619 120619 889
Width: 669
Flags: W
HStem: 0 21G<62 156 62 62 439 533 439 439> 608 81<241 524 241 241>
VStem: 62 568
LayerCount: 2
Fore
SplineSet
630 689 m 1
 533 0 l 1
 439 0 l 1
 524 608 l 1
 241 608 l 1
 156 0 l 1
 62 0 l 1
 159 689 l 1
 630 689 l 1
EndSplineSet
EndChar
StartChar: u1D736
Encoding: 120630 120630 899
Width: 588
Flags: W
HStem: -12 73<200.5 251.5 200.5 260.5> 466 73<239 326.5> 507 20G<481 565 565 565>
VStem: 51 96<142 231.5 142 260> 394.5 80 396 41
LayerCount: 2
Fore
SplineSet
294 539 m 0xd4
 382 539 430 494 437 381 c 1
 481 527 l 1xb4
 565 527 l 1
 471 250 l 1
 478 113 l 2
 479 86 486 73 515 62 c 1
 476 -13 l 1
 433 -6 396 28 395 85 c 2
 394 136 l 1xb8
 356 53 305 -12 216 -12 c 0
 120 -12 51 55 51 188 c 0
 51 332 114 539 294 539 c 0xd4
296 466 m 0xd8
 182 466 147 276 147 187 c 0
 147 97 174 61 227 61 c 0
 276 61 338 97 396 269 c 1
 391 427 357 466 296 466 c 0xd8
EndSplineSet
EndChar
StartChar: u1D73A
Encoding: 120634 120634 903
Width: 477
Flags: W
HStem: -12 74<199 260.5 199 262.5> 239 72<211 337 275 316> 467 72<254 317.5>
VStem: 34 97<114.5 164 114.5 170> 92 91<360.5 407.5 360.5 422.5>
LayerCount: 2
Fore
SplineSet
226 -12 m 0xf0
 108 -12 34 50 34 137 c 0xf0
 34 203 72 267 186 282 c 1
 129 298 92 330 92 387 c 0
 92 458 149 539 291 539 c 0
 362 539 416 516 455 484 c 1
 407 431 l 1
 375 453 344 467 291 467 c 0
 217 467 183 430 183 385 c 0
 183 336 217 311 275 311 c 2xe8
 337 311 l 1
 316 239 l 1
 263 239 l 2
 159 239 131 190 131 138 c 0
 131 91 164 62 234 62 c 0
 287 62 328 79 381 111 c 1
 421 51 l 1
 366 12 299 -12 226 -12 c 0xf0
EndSplineSet
EndChar
StartChar: u1D740
Encoding: 120640 120640 909
Width: 489
Flags: W
HStem: -12 21G<70 70> -11 21G 510 20G<266 266> 517 20G<231 231> 732 20G<149 149>
VStem: -16 481<10 20>
LayerCount: 2
Fore
SplineSet
149 752 m 1x5c
 293 724 336 659 350 495 c 0
 379 187 406 106 465 20 c 1
 379 -11 l 1x5c
 322 83 288 173 275 451 c 1
 70 -12 l 1x9c
 -16 10 l 1
 231 537 l 1x5c
 266 530 l 1x6c
 257 622 230 662 129 681 c 1
 149 752 l 1x5c
EndSplineSet
EndChar
StartChar: u1D746
Encoding: 120646 120646 915
Width: 572
Flags: W
HStem: -216 21G<12 12> -12 75<233 317.5 230 358> 467 72<277 354.5>
VStem: 420 97<283.5 381.5>
LayerCount: 2
Fore
SplineSet
324 539 m 0
 449 539 517 460 517 337 c 0
 517 202 454 -12 262 -12 c 0
 204 -12 164 10 139 46 c 1
 105 -204 l 1
 12 -216 l 1
 80 274 l 2
 104 447 190 539 324 539 c 0
253 63 m 0
 382 63 420 230 420 337 c 0
 420 426 387 467 322 467 c 0
 232 467 186 389 168 255 c 2
 150 123 l 1
 170 85 207 63 253 63 c 0
EndSplineSet
EndChar
StartChar: u1D752
Encoding: 120658 120658 927
Width: 579
Flags: W
HStem: -11 21G<468 468> -10 21G<153 153> 518 20G<111 111 427 427>
VStem: 111.1 91.9 376 91.89
LayerCount: 2
Fore
SplineSet
470 138 m 2x78
 463 86 472 70 506 55 c 1
 468 -11 l 1xb8
 403 11 376 41 376 99 c 0
 376 154 405 283 439 426 c 1
 153 -10 l 1
 58 22 l 1
 109 389 l 2
 116 441 107 457 73 472 c 1
 111 538 l 1
 176 516 203 486 203 428 c 0
 203 373 174 244 140 101 c 1
 427 538 l 1
 521 505 l 1
 470 138 l 2x78
EndSplineSet
EndChar
StartChar: u1D7D0
Encoding: 120784 120784 933
Width: 495
Flags: W
HStem: 0 77<144 434> 558 20G<25 25> 603 76<195 255.5>
VStem: 333 96<437.5 527>
LayerCount: 2
Fore
SplineSet
228 679 m 0
 351 679 429 600 429 496 c 0
 429 371 349 282 144 77 c 1
 445 77 l 1
 434 0 l 1
 39 0 l 1
 39 73 l 1
 275 319 333 383 333 492 c 0
 333 562 288 603 223 603 c 0
 167 603 130 581 85 530 c 1
 25 578 l 1
 79 645 144 679 228 679 c 0
EndSplineSet
EndChar
